<svg xmlns="http://www.w3.org/2000/svg" width="31" height="31" viewBox="0 0 31 31" fill="none">
  <path d="M11.6249 28.4167H19.3749C25.8333 28.4167 28.4166 25.8333 28.4166 19.375V11.625C28.4166 5.16668 25.8333 2.58334 19.3749 2.58334H11.6249C5.16659 2.58334 2.58325 5.16668 2.58325 11.625V19.375C2.58325 25.8333 5.16659 28.4167 11.6249 28.4167Z" stroke="#5B2867" stroke-width="1.5" stroke-linecap="round" stroke-linejoin="round"/>
  <path d="M21.9584 3.15167V16.0425C21.9584 18.5871 20.1372 19.5817 17.9026 18.2383L16.1976 17.2179C15.8101 16.9854 15.1901 16.9854 14.8026 17.2179L13.0976 18.2383C10.863 19.5688 9.04175 18.5871 9.04175 16.0425V3.15167" stroke="#5B2867" stroke-width="1.5" stroke-linecap="round" stroke-linejoin="round"/>
  <path d="M11.6249 28.4167H19.3749C25.8333 28.4167 28.4166 25.8333 28.4166 19.375V11.625C28.4166 5.16668 25.8333 2.58334 19.3749 2.58334H11.6249C5.16659 2.58334 2.58325 5.16668 2.58325 11.625V19.375C2.58325 25.8333 5.16659 28.4167 11.6249 28.4167Z" stroke="#5B2867" stroke-width="1.5" stroke-linecap="round" stroke-linejoin="round"/>
  <path d="M21.9584 3.15167V16.0425C21.9584 18.5871 20.1372 19.5817 17.9026 18.2383L16.1976 17.2179C15.8101 16.9854 15.1901 16.9854 14.8026 17.2179L13.0976 18.2383C10.863 19.5688 9.04175 18.5871 9.04175 16.0425V3.15167" stroke="#5B2867" stroke-width="1.5" stroke-linecap="round" stroke-linejoin="round"/>
</svg>