<svg xmlns="http://www.w3.org/2000/svg" width="105" height="105" viewBox="0 0 105 105" fill="none">
  <path d="M89.6875 44.5812H77.0438C66.675 44.5812 58.2313 36.1375 58.2313 25.7687V13.125C58.2313 10.7188 56.2625 8.75 53.8563 8.75H35.3062C21.8312 8.75 10.9375 17.5 10.9375 33.1188V71.8813C10.9375 87.5 21.8312 96.25 35.3062 96.25H69.6938C83.1688 96.25 94.0625 87.5 94.0625 71.8813V48.9562C94.0625 46.55 92.0938 44.5812 89.6875 44.5812ZM53.725 69.0375L44.975 77.7875C44.6687 78.0938 44.275 78.3563 43.8812 78.4875C43.4875 78.6625 43.0938 78.75 42.6562 78.75C42.2188 78.75 41.825 78.6625 41.4313 78.4875C41.0813 78.3563 40.7313 78.0938 40.4688 77.8313C40.425 77.7875 40.3812 77.7875 40.3812 77.7438L31.6313 68.9938C30.3625 67.725 30.3625 65.625 31.6313 64.3563C32.9 63.0875 35 63.0875 36.2687 64.3563L39.375 67.55V49.2188C39.375 47.425 40.8625 45.9375 42.6562 45.9375C44.45 45.9375 45.9375 47.425 45.9375 49.2188V67.55L49.0875 64.4C50.3563 63.1313 52.4562 63.1313 53.725 64.4C54.9937 65.6688 54.9937 67.7687 53.725 69.0375Z" fill="#380F43"/>
  <path d="M76.2563 38.5438C80.4126 38.5875 86.1876 38.5875 91.1313 38.5875C93.6251 38.5875 94.9376 35.6562 93.1876 33.9062C86.8876 27.5625 75.6001 16.1438 69.1251 9.66875C67.3313 7.875 64.2251 9.1 64.2251 11.5938V26.8625C64.2251 33.25 69.6501 38.5438 76.2563 38.5438Z" fill="#380F43"/>
</svg>