<svg xmlns="http://www.w3.org/2000/svg" width="40" height="40" viewBox="0 0 40 40" fill="none">
  <path d="M19.8998 3.68334L15.8832 13.0333H11.8665C11.1998 13.0333 10.5498 13.0833 9.9165 13.2167L11.5832 9.21667L11.6498 9.06667L11.7498 8.8C11.7998 8.68334 11.8332 8.58334 11.8832 8.5C13.8165 4.01667 15.9832 2.61667 19.8998 3.68334Z" fill="#C99014"/>
  <path d="M31.2169 13.4833L31.1835 13.4667C30.1835 13.1833 29.1669 13.0333 28.1335 13.0333H17.7002L21.4502 4.31666L21.5002 4.2C21.7335 4.28333 21.9835 4.4 22.2335 4.48333L25.9169 6.03333C27.9669 6.88333 29.4002 7.76666 30.2835 8.83333C30.4335 9.03333 30.5669 9.21666 30.7002 9.43333C30.8502 9.66666 30.9669 9.9 31.0335 10.15C31.1002 10.3 31.1502 10.4333 31.1835 10.5833C31.4335 11.4333 31.4502 12.4 31.2169 13.4833Z" fill="#C99014"/>
  <path d="M20.8667 29.4333H21.2834C21.7834 29.4333 22.2 28.9833 22.2 28.4333C22.2 27.7333 22 27.6333 21.5667 27.4667L20.8667 27.2167V29.4333Z" fill="#C99014"/>
  <path d="M30.4834 15.8667C29.7334 15.65 28.9501 15.5333 28.1334 15.5333H11.8667C10.7334 15.5333 9.66673 15.75 8.66673 16.1833C5.76673 17.4333 3.7334 20.3167 3.7334 23.6667V26.9167C3.7334 27.3167 3.76673 27.7 3.81673 28.1C4.1834 33.4 7.01673 36.2333 12.3167 36.5833C12.7001 36.6333 13.0834 36.6667 13.5001 36.6667H26.5001C32.6667 36.6667 35.9167 33.7333 36.2334 27.9C36.2501 27.5833 36.2667 27.25 36.2667 26.9167V23.6667C36.2667 19.9833 33.8167 16.8833 30.4834 15.8667ZM22.1334 25.8333C22.9001 26.1 23.9334 26.6667 23.9334 28.4333C23.9334 29.95 22.7501 31.1667 21.2834 31.1667H20.8667V31.5333C20.8667 32.0167 20.4834 32.4 20.0001 32.4C19.5167 32.4 19.1334 32.0167 19.1334 31.5333V31.1667H18.9834C17.3834 31.1667 16.0667 29.8167 16.0667 28.15C16.0667 27.6667 16.4501 27.2833 16.9334 27.2833C17.4167 27.2833 17.8001 27.6667 17.8001 28.15C17.8001 28.85 18.3334 29.4333 18.9834 29.4333H19.1334V26.6167L17.8667 26.1667C17.1001 25.9 16.0667 25.3333 16.0667 23.5667C16.0667 22.05 17.2501 20.8333 18.7167 20.8333H19.1334V20.4667C19.1334 19.9833 19.5167 19.6 20.0001 19.6C20.4834 19.6 20.8667 19.9833 20.8667 20.4667V20.8333H21.0167C22.6167 20.8333 23.9334 22.1833 23.9334 23.85C23.9334 24.3333 23.5501 24.7167 23.0667 24.7167C22.5834 24.7167 22.2001 24.3333 22.2001 23.85C22.2001 23.15 21.6667 22.5667 21.0167 22.5667H20.8667V25.3833L22.1334 25.8333Z" fill="#C99014"/>
  <path d="M17.7998 23.5667C17.7998 24.2667 17.9998 24.3667 18.4331 24.5333L19.1331 24.7833V22.5667H18.7165C18.1998 22.5667 17.7998 23.0167 17.7998 23.5667Z" fill="#C99014"/>
</svg>