<svg width="29" height="14" viewBox="0 0 29 14" fill="none" xmlns="http://www.w3.org/2000/svg">
<path d="M8.757 8.6H6.037V6.6H10.997V12.92C10.6237 13.0933 9.957 13.2667 8.997 13.44C8.037 13.6 7.16367 13.68 6.377 13.68C4.257 13.68 2.78367 13.1867 1.957 12.2C1.14367 11.2133 0.736998 9.55333 0.736998 7.22C0.736998 4.99333 1.217 3.36 2.177 2.32C3.15033 1.28 4.68367 0.76 6.777 0.76C7.56367 0.76 8.26367 0.78 8.877 0.82C9.50367 0.846666 9.98367 0.893333 10.317 0.959999V3.06C9.837 3.02 9.28367 2.98667 8.657 2.96C8.03033 2.93333 7.40367 2.92 6.777 2.92C5.40367 2.92 4.46367 3.23333 3.957 3.86C3.46367 4.48667 3.217 5.60667 3.217 7.22C3.217 7.99333 3.257 8.63333 3.337 9.14C3.43033 9.64667 3.56367 10.06 3.737 10.38C3.96367 10.78 4.28367 11.0667 4.697 11.24C5.12367 11.4133 5.75033 11.5 6.577 11.5C6.857 11.5 7.18367 11.48 7.557 11.44C7.93033 11.4 8.33033 11.3467 8.757 11.28V8.6ZM20.6553 11.08V12.96C20.3219 13.16 19.7953 13.3333 19.0753 13.48C18.3686 13.6133 17.6286 13.68 16.8553 13.68C15.2819 13.68 14.1486 13.28 13.4553 12.48C12.7753 11.68 12.4353 10.36 12.4353 8.52C12.4353 6.74667 12.7953 5.45333 13.5153 4.64C14.2353 3.82667 15.3753 3.42 16.9353 3.42C18.4419 3.42 19.5086 3.73333 20.1353 4.36C20.7619 4.98667 21.0753 6.06 21.0753 7.58C21.0753 7.86 21.0686 8.12 21.0553 8.36C21.0419 8.58667 21.0153 8.90667 20.9753 9.32H14.7753C14.7886 10.1467 14.9686 10.7267 15.3153 11.06C15.6753 11.3933 16.3086 11.56 17.2153 11.56C17.8153 11.56 18.4353 11.5133 19.0753 11.42C19.7153 11.3267 20.2419 11.2133 20.6553 11.08ZM16.9353 5.44C16.1219 5.44 15.5553 5.6 15.2353 5.92C14.9286 6.24 14.7753 6.82 14.7753 7.66H18.9553V7.24C18.9419 6.56 18.7886 6.09333 18.4953 5.84C18.2019 5.57333 17.6819 5.44 16.9353 5.44ZM28.9181 11.34V13.32C28.6914 13.4133 28.3714 13.4933 27.9581 13.56C27.5581 13.64 27.1914 13.68 26.8581 13.68C25.5914 13.68 24.6848 13.4067 24.1381 12.86C23.5914 12.3 23.3181 11.3733 23.3181 10.08V5.56H21.9981V3.62H23.3781L23.6981 1.26H25.6381V3.62H28.7981V5.56H25.6381V10C25.6381 10.5867 25.7648 10.9867 26.0181 11.2C26.2714 11.4133 26.7248 11.52 27.3781 11.52C27.6048 11.52 27.8714 11.5067 28.1781 11.48C28.4848 11.44 28.7314 11.3933 28.9181 11.34Z" fill="#1B4771"/>
</svg>
