<svg xmlns="http://www.w3.org/2000/svg" width="44" height="33" viewBox="0 0 44 33" fill="none">
  <path d="M1 21.209L2.37566 7.66402H40.4709L42.5873 21.7381L1 21.209Z" fill="white" stroke="white"/>
  <path d="M3.85714 7.34656H4.80952V7.5582L4.1746 15.3889H3.6455H2.69312V14.9656L3.43386 7.34656H3.85714Z" fill="black"/>
  <path d="M6.18518 15.3889L6.8201 7.34656H7.8783H8.72486H10.2063V7.5582L10.418 15.8122H8.72486V14.0132V7.5582H7.86995L7.56084 15.3889H7.24338H6.8201H6.18518Z" fill="black"/>
  <path d="M12.4286 8.93386V7.34656H13.4868V9.25132L12.4286 8.93386Z" fill="black"/>
  <path d="M14.4391 12.4259V7.34656H15.6032V10.4153L14.7566 10.7328L14.4391 12.4259Z" fill="black"/>
  <path d="M16.5555 15.3889V7.34656H17.8254V15.3889H16.5555Z" fill="black"/>
  <path d="M19.9418 15.8122V7.34656H21.1058V15.3889L19.9418 15.8122Z" fill="black"/>
  <path d="M22.2698 15.8122V7.34656H23.1164L23.5397 15.3889L23.1164 15.8122H22.2698Z" fill="black"/>
  <path d="M25.2328 12.0026V7.5582H26.6085V10.7328L25.9735 13.0608L25.2328 12.0026Z" fill="black"/>
  <path d="M27.6667 13.0608V7.5582H28.619V13.0608H27.6667Z" fill="black"/>
  <path d="M29.6772 13.6958V8.0873V7.5582H30.8413V15.3889L29.6772 13.6958Z" fill="black"/>
  <path d="M32.9577 8.0873H34.3333H35.1799H36.2381L36.6614 15.8122H35.4973L35.1799 8.0873H34.3333V15.8122H33.3809L32.9577 8.0873Z" fill="black"/>
  <path d="M38.1428 8.0873H39.201L40.4709 15.8122H38.8836L38.1428 8.0873Z" fill="black"/>
  <path d="M7.8783 7.34656H6.8201L6.18518 15.3889H6.8201H7.24338H7.56084L7.86995 7.5582M7.8783 7.34656H8.72486M7.8783 7.34656L7.86995 7.5582M8.72486 7.34656H10.2063V7.5582L10.418 15.8122H8.72486V14.0132V7.5582M8.72486 7.34656V7.5582M8.72486 7.5582H7.86995M34.3333 8.0873H32.9577L33.3809 15.8122H34.3333V8.0873ZM34.3333 8.0873H35.1799M35.1799 8.0873L35.4973 15.8122H36.6614L36.2381 8.0873H35.1799ZM4.80952 7.34656H3.85714H3.43386L2.69312 14.9656V15.3889H3.6455H4.1746L4.80952 7.5582V7.34656ZM12.4286 7.34656V8.93386L13.4868 9.25132V7.34656H12.4286ZM14.4391 7.34656V12.4259L14.7566 10.7328L15.6032 10.4153V7.34656H14.4391ZM16.5555 7.34656V15.3889H17.8254V7.34656H16.5555ZM19.9418 7.34656V15.8122L21.1058 15.3889V7.34656H19.9418ZM22.2698 7.34656V15.8122H23.1164L23.5397 15.3889L23.1164 7.34656H22.2698ZM25.2328 7.5582V12.0026L25.9735 13.0608L26.6085 10.7328V7.5582H25.2328ZM27.6667 7.5582V13.0608H28.619V7.5582H27.6667ZM29.6772 8.0873V13.6958L30.8413 15.3889V7.5582H29.6772V8.0873ZM39.2011 8.0873H38.1429L38.8836 15.8122H40.4709L39.2011 8.0873Z" stroke="#1E1E1E" stroke-width="0.5"/>
  <path d="M3.43384 21.1032L38.037 21.7381M3.43384 7.66402H5.76188M38.5661 20.045H40.2592L39.0952 7.66402H31.7936M37.2963 8.29894L38.037 20.045L36.2381 19.9771M32.4285 19.8333L34.3333 19.9052M36.2381 16.0238V19.9771M36.2381 19.9771L34.3333 19.9052M34.3333 15.8122V19.9052M31.7936 7.66402L32.0053 13.6958M31.7936 7.66402H24.3862M24.3862 7.66402V11.4735M24.3862 7.66402H18.7778M24.3862 15.4947L24.492 19.7275H23.7513M22.7989 16.3413V18.4577M20.6825 16.3413V19.3042H19.4127M18.7778 7.66402V15.8122M18.7778 7.66402H11.1058M16.873 16.0238V19.3042H17.1905M11.1058 7.66402V11.4735M11.1058 7.66402H5.76188M7.13754 16.0238V19.3042M7.13754 19.5159H8.30156M5.76188 7.66402L5.12696 19.3042H6.3968M3.27675 15.8122L3.01056 19.5159L4.38622 19.3042" stroke="#1E1E1E" stroke-width="0.5"/>
  <path d="M10.1926 24.5191L4.5979 30.7955L7.7718 31.3907L9.35874 31.6883L10.9457 31.9859L14.7113 26.7916L15.3569 25.9259L15.7872 25.493L16.2176 25.0602L16.9707 24.5191L17.5087 24.0862L18.0466 23.6534L18.7997 22.7877L18.9073 22.1384V21.1645V20.2987L19.0149 19.7036L19.1225 19.0002L19.2301 18.6755L19.4453 18.1345L19.8756 17.5934L20.0908 17.1605V16.6195L19.8756 16.1866L19.3377 16.0784L19.0149 16.1866L18.5846 16.403L18.0466 17.1605L17.7238 17.8098L17.5087 18.6755V19.433L17.2935 20.2987L17.0783 20.7316L16.9707 20.5152L16.6479 19.9741L16.3252 18.6755L16.2176 17.8098V16.8359V15.7537V14.4552V12.6155V11.6416V10.6677L15.7872 10.4512H15.2493L14.9265 10.7759L14.7113 11.2087L14.4962 11.858V12.6155V13.373V14.7798V15.7537V16.6195L13.9101 15.918L13.743 15.3209V14.4552V13.6977V12.9402L13.6354 11.858V11.2087V10.4512V9.80196L13.3127 9.04446L12.7747 8.82803L12.3444 9.04446L12.1292 9.58553V10.1266V10.7759V11.858L11.914 12.9402V16.403L11.4836 15.3209L11.2685 14.6716L10.9457 13.4812L10.847 12.1827V10.2112L10.6229 9.91018H10.085L9.86979 10.4512L9.65461 11.4252V13.6977V14.9962L9.86979 16.1866V16.8359L9.11667 15.862L8.25595 14.0223L7.79331 12.9402L7.39523 12.7237H6.96487L6.6421 13.1566L7.28764 14.9962L8.47113 18.3509L8.68631 19.1084L9.11667 19.9741L10.4077 22.3548V24.0862L10.1926 24.5191Z" fill="#F2D3A4"/>
  <path d="M30.3118 31.1202L30.9471 32.4259L34.1217 31.5794L36.873 30.5212L35.6913 29.3887L35.1534 28.7395L33.9699 27.2245L33.1092 26.3587L32.4636 25.0602V24.5191V23.3287V21.8137L32.5712 20.948L33.1092 19.1084L33.3243 17.4311V16.403V15.2127L33.1092 14.4552L32.2054 13.6977L31.8181 13.373L31.4953 13.6977L31.3877 14.0223L31.8181 14.7798L32.2054 15.2127L32.0333 16.6195L31.4953 17.7557V17.1605L31.1726 15.7537L30.9471 14.7798L30.7422 13.9141L30.3118 12.9402L29.5946 11.858L29.0208 10.9923H28.698L28.3752 11.2087L28.16 11.6416L28.3752 12.4259L29.0208 13.373L29.5587 15.7537L29.3598 17.7557L29.0208 16.6195L28.9132 15.9702L28.698 14.9962L28.16 13.373L27.7297 12.6155L27.5145 11.858L26.9766 10.9923L26.6 10.7759L26.2234 11.2087V11.6416V12.0745L26.6 14.1846L26.2234 13.373L25.9007 12.1827L25.3627 11.6416H24.7172L24.502 12.1827L24.9323 14.1846L25.3627 15.5373L25.6855 17.1605V18.6755V19.9741V20.948V21.5973L25.3627 22.3548H24.9323L24.502 22.1384L24.1792 21.1645L23.6413 20.5152L22.9957 19.1084L22.135 18.3509H21.4895L21.2743 18.6755V19.433L21.4895 19.7036L21.7047 19.9741L22.135 21.1645L22.9957 22.6795L23.2109 23.6534L23.6413 24.5191L24.1792 25.0602L24.9323 25.9259L25.9007 26.7916L27.5145 27.7655L28.16 28.3066L29.3435 29.3887L29.7739 30.2544L30.3118 31.1202Z" fill="#F2D3A4"/>
  <path d="M27.7297 18.3509L27.5145 17.4311L27.2993 16.8359L26.9766 14.9962L26.6 14.1846M26.6 14.1846L26.2234 13.373L25.9007 12.1827L25.3627 11.6416H24.7172L24.502 12.1827L24.9323 14.1846L25.3627 15.5373L25.6855 17.1605V18.6755V19.9741V20.948V21.5973L25.3627 22.3548H24.9323L24.502 22.1384L24.1792 21.1645L23.6413 20.5152L22.9957 19.1084L22.135 18.3509H21.4895L21.2743 18.6755V19.433L21.4895 19.7036M26.6 14.1846L26.2234 12.0745V11.6416V11.2087L26.6 10.7759L26.9766 10.9923L27.5145 11.858L27.7297 12.6155L28.16 13.373L28.698 14.9962L28.9132 15.9702L29.0208 16.6195L29.3598 17.7557M29.3598 17.7557L29.7739 18.6755M29.3598 17.7557L29.5587 15.7537L29.0208 13.373L28.3752 12.4259L28.16 11.6416L28.3752 11.2087L28.698 10.9923H29.0208L29.5946 11.858L30.3118 12.9402L30.7422 13.9141L30.9471 14.7798L31.1726 15.7537L31.4953 17.1605V17.7557M31.4953 19.433V18.3509V17.7557M31.4953 17.7557L32.0333 16.6195L32.2054 15.2127L31.8181 14.7798L31.3877 14.0223L31.4953 13.6977L31.8181 13.373L32.2054 13.6977L33.1092 14.4552L33.3243 15.2127V16.403V17.4311L33.1092 19.1084L32.5712 20.948L32.4636 21.8137V23.3287V24.5191V25.0602L33.1092 26.3587L33.9699 27.2245L35.1534 28.7394L35.6913 29.3887L36.873 30.5212L34.1217 31.5794L30.9471 32.4259L30.3118 31.1202L29.7739 30.2544L29.3435 29.3887L28.16 28.3066L27.5145 27.7655L25.9007 26.7916L24.9323 25.9259L24.1792 25.0602L23.6413 24.5191L23.2109 23.6534L22.9957 22.6795L22.135 21.1645L21.7047 19.9741L21.4895 19.7036M21.7047 19.6495L21.4895 19.7036M4.5979 30.7955L10.1926 24.5191L10.4077 24.0862V22.3548L9.11667 19.9741L8.68631 19.1084L8.47113 18.3509L7.28764 14.9962L6.6421 13.1566L6.96487 12.7237H7.39523L7.79331 12.9402L8.25595 14.0223L9.11667 15.862L9.86979 16.8359V16.1866L9.65461 14.9962V13.6977V11.4252L9.86979 10.4512L10.085 9.91018H10.6229L10.847 10.2112V12.1827L10.9457 13.4812L11.2685 14.6716L11.4836 15.3209L11.914 16.403V12.9402L12.1292 11.858V10.7759V10.1266V9.58553L12.3444 9.04446L12.7747 8.82803L13.3127 9.04446L13.6354 9.80196V10.4512V11.2087V11.858L13.743 12.9402V13.6977V14.4552V15.3209L13.9101 15.918L14.4962 16.6195V15.7537V14.7798V13.373V12.6155V11.858L14.7113 11.2087L14.9265 10.7759L15.2493 10.4512H15.7872L16.2176 10.6677V11.6416V12.6155V14.4552V15.7537V16.8359V17.8098L16.3252 18.6755L16.6479 19.9741L16.9707 20.5152L17.0783 20.7316L17.2935 20.2987L17.5087 19.433V18.6755L17.7238 17.8098L18.0466 17.1605L18.5846 16.403L19.0149 16.1866L19.3377 16.0784L19.8756 16.1866L20.0908 16.6195V17.1605L19.8756 17.5934L19.4453 18.1345L19.2301 18.6755L19.1225 19.0002L19.0149 19.7036L18.9073 20.2987V21.1645V22.1384L18.7997 22.7877L18.0466 23.6534L17.5087 24.0862L16.9707 24.5191L16.2176 25.0602L15.7872 25.493L15.3569 25.9259L14.7113 26.7916L10.9457 31.9859L9.35874 31.6883L7.7718 31.3907L4.5979 30.7955Z" stroke="#1E1E1E" stroke-width="0.56"/>
  <rect x="9.11567" y="24.9616" width="5.64607" height="1.40476" rx="0.702381" transform="rotate(34.1724 9.11567 24.9616)" fill="#A5450F" stroke="black" stroke-width="0.5"/>
  <path d="M12.9193 26.9233C12.9193 27.9541 12.0837 28.7897 11.0529 28.7897C10.0221 28.7897 9.18652 27.9541 9.18652 26.9233C9.18652 25.8925 10.0221 25.0569 11.0529 25.0569C12.0837 25.0569 12.9193 25.8925 12.9193 26.9233Z" fill="#FFFDFD" stroke="black" stroke-width="0.5" stroke-linecap="square"/>
  <path d="M10.1005 26.0767L10.9471 27.0291L11.8995 26.7116" stroke="black" stroke-width="0.5"/>
  <path d="M26.4289 5.53661C26.4361 5.5323 26.4432 5.52847 26.4503 5.52505C26.4492 5.52563 26.4481 5.52615 26.447 5.52671C26.4133 5.54473 26.3815 5.57259 26.3523 5.60453C26.3392 5.61877 26.3266 5.63401 26.3147 5.64989C26.313 5.6515 26.3113 5.65308 26.3096 5.6547C26.3439 5.60527 26.3846 5.56318 26.4289 5.53661ZM26.8823 5.70397C26.8843 5.70717 26.8863 5.71047 26.8883 5.71375C26.8892 5.71545 26.8901 5.71704 26.891 5.7187C26.8935 5.72352 26.8958 5.72847 26.898 5.73362C26.8997 5.73785 26.9011 5.74229 26.9025 5.74673C26.9034 5.7494 26.9044 5.75198 26.9052 5.75464C26.9061 5.7577 26.907 5.76077 26.9078 5.76389C26.908 5.76483 26.9082 5.76579 26.9084 5.76673C26.9084 5.76634 26.9085 5.76678 26.9089 5.76844C26.909 5.76889 26.9091 5.76933 26.9092 5.76975C26.9091 5.76947 26.909 5.7692 26.909 5.76896C26.9091 5.76949 26.9092 5.77006 26.9093 5.7708C26.9115 5.78246 26.9133 5.79437 26.9144 5.80673C26.914 5.80459 26.9137 5.80237 26.9133 5.80025C26.9025 5.74251 26.8764 5.69836 26.8407 5.66876C26.8363 5.65702 26.8309 5.64627 26.8248 5.63636C26.8308 5.64197 26.8366 5.64772 26.8423 5.65371C26.8567 5.669 26.8703 5.68552 26.8823 5.70397ZM26.8508 5.99363C26.8503 5.9976 26.8501 6.00148 26.8501 6.00527C26.8456 6.02711 26.838 6.04889 26.8247 6.06918C26.8197 6.07686 26.8142 6.08418 26.8084 6.09117C26.8145 6.07605 26.8197 6.06068 26.8239 6.0453C26.8338 6.02861 26.8429 6.0113 26.8508 5.99363ZM26.6741 6.12971C26.6797 6.12447 26.6852 6.11899 26.6905 6.11325C26.6959 6.1101 26.7012 6.1067 26.7065 6.10308C26.6982 6.11071 26.6897 6.11791 26.681 6.12459C26.6787 6.12635 26.6764 6.12803 26.6741 6.12971ZM26.7045 5.90278C26.7095 5.9111 26.7121 5.92172 26.7127 5.93355C26.7056 5.93721 26.6985 5.94045 26.6915 5.94328C26.6971 5.93012 26.7015 5.91641 26.7045 5.90278ZM26.6572 5.61414C26.653 5.61435 26.6487 5.6147 26.6445 5.61516C26.6309 5.61007 26.6171 5.6048 26.603 5.59999C26.6086 5.59994 26.6142 5.59999 26.6198 5.60018C26.6285 5.60334 26.6373 5.60664 26.646 5.60989C26.6497 5.61127 26.6535 5.61269 26.6572 5.61414ZM26.5113 5.78121C26.5252 5.76877 26.5395 5.75787 26.5539 5.74837C26.5553 5.7491 26.5567 5.74989 26.558 5.75068C26.502 5.78216 26.4489 5.8491 26.4437 5.92293C26.4417 5.95216 26.447 5.97865 26.4575 6.00044C26.4491 5.99084 26.4415 5.98025 26.4349 5.96862C26.4298 5.95941 26.4254 5.94926 26.422 5.93833C26.4332 5.87934 26.4664 5.82146 26.5113 5.78121ZM26.2545 6.05268C26.2552 6.07325 26.2584 6.09267 26.2633 6.1109C26.2696 6.13366 26.2782 6.15457 26.2889 6.17353C26.2752 6.16139 26.2636 6.14587 26.2547 6.12615C26.243 6.1001 26.2365 6.07085 26.2344 6.03966C26.241 6.04428 26.2477 6.04857 26.2545 6.05268ZM26.3535 5.9349C26.3544 5.94659 26.3561 5.95767 26.3584 5.96823C26.3583 5.96885 26.3582 5.9695 26.3582 5.97013C26.35 5.96322 26.3423 5.95561 26.3351 5.94605C26.3349 5.94371 26.3347 5.94135 26.3346 5.93898C26.3401 5.9257 26.3465 5.91259 26.3537 5.89986C26.3528 5.91189 26.3527 5.92361 26.3535 5.9349ZM26.4791 5.665C26.4598 5.67286 26.4397 5.68313 26.4199 5.69564C26.426 5.68591 26.4323 5.67627 26.4388 5.66684C26.4572 5.6609 26.4754 5.65898 26.4932 5.65966C26.4885 5.66134 26.4838 5.6631 26.4791 5.665ZM26.5625 5.9435C26.5525 5.93699 26.5444 5.92766 26.5407 5.91424C26.5391 5.90836 26.5385 5.90047 26.539 5.89326C26.543 5.89176 26.547 5.89122 26.5511 5.89152C26.5604 5.89224 26.5685 5.89632 26.5759 5.90139C26.5697 5.9152 26.565 5.92944 26.5625 5.9435ZM26.6118 5.82639C26.6151 5.82533 26.6184 5.8243 26.6217 5.82335C26.6224 5.82311 26.6231 5.82291 26.6239 5.82267C26.6257 5.82549 26.6275 5.82839 26.6293 5.83136C26.6275 5.83271 26.6258 5.83413 26.624 5.83557C26.6201 5.83224 26.616 5.82913 26.6118 5.82639ZM26.6295 5.94163C26.6288 5.94275 26.6281 5.94383 26.6274 5.94484C26.6259 5.94647 26.6242 5.94798 26.6225 5.94929C26.6225 5.94818 26.6224 5.94706 26.6223 5.9459C26.6218 5.94102 26.6215 5.93984 26.6219 5.93704C26.6244 5.93866 26.6269 5.94019 26.6295 5.94163ZM26.6042 4.23181C26.6082 4.22962 26.6122 4.22739 26.6162 4.22513C26.6148 4.22801 26.6136 4.231 26.6125 4.2341C26.6097 4.23333 26.607 4.23257 26.6042 4.23181ZM26.525 4.19969C26.5313 4.18827 26.5376 4.17688 26.5438 4.16549C26.5463 4.16604 26.5489 4.1662 26.5517 4.16592C26.55 4.16741 26.5483 4.16892 26.5466 4.17044C26.5335 4.18187 26.5261 4.19602 26.5234 4.20953C26.5223 4.20923 26.5212 4.20893 26.5201 4.20863C26.5217 4.20563 26.5234 4.20266 26.525 4.19969ZM25.2298 5.16911C25.237 5.16479 25.2441 5.161 25.2512 5.15757C25.2501 5.15813 25.249 5.15865 25.2479 5.15924C25.2142 5.17723 25.1824 5.20509 25.1532 5.23703C25.1401 5.2513 25.1276 5.2665 25.1156 5.28242C25.1139 5.284 25.1122 5.28561 25.1105 5.2872C25.1448 5.23777 25.1855 5.19568 25.2298 5.16911ZM25.6832 5.33647C25.6853 5.33967 25.6872 5.34297 25.6892 5.34625C25.6901 5.34795 25.691 5.34954 25.6919 5.3512C25.6944 5.35602 25.6967 5.36097 25.6989 5.36615C25.7006 5.37035 25.702 5.37479 25.7035 5.37923C25.7043 5.3819 25.7053 5.38448 25.7061 5.38717C25.707 5.3902 25.7079 5.39327 25.7087 5.39642C25.7089 5.39732 25.7091 5.39829 25.7093 5.39923C25.7093 5.39884 25.7094 5.39927 25.7098 5.40094C25.7099 5.40139 25.71 5.40183 25.7101 5.40225C25.71 5.40197 25.7099 5.40173 25.7099 5.40146C25.71 5.40199 25.7101 5.40256 25.7102 5.40329C25.7124 5.41496 25.7142 5.42686 25.7153 5.43923C25.7149 5.43709 25.7147 5.43487 25.7142 5.43278C25.7034 5.37504 25.6773 5.33086 25.6416 5.30126C25.6372 5.28952 25.6318 5.27877 25.6257 5.26888C25.6317 5.27447 25.6375 5.28025 25.6432 5.28624C25.6576 5.3015 25.6712 5.31802 25.6832 5.33647ZM25.6256 5.70171C25.6206 5.70939 25.6151 5.71668 25.6093 5.72367C25.6154 5.70855 25.6206 5.69318 25.6248 5.6778C25.6281 5.67214 25.6314 5.6664 25.6346 5.66063C25.6337 5.66877 25.6342 5.67663 25.6359 5.68345C25.6329 5.68965 25.6295 5.69572 25.6256 5.70171ZM25.475 5.76221C25.4806 5.75697 25.4861 5.75149 25.4914 5.74575C25.4968 5.7426 25.5021 5.7392 25.5074 5.73561C25.4991 5.74321 25.4906 5.75041 25.4819 5.75712C25.4796 5.75885 25.4773 5.76053 25.475 5.76221ZM25.5054 5.53527C25.5104 5.5436 25.513 5.55422 25.5136 5.56608C25.5065 5.56971 25.4994 5.57295 25.4924 5.57581C25.4981 5.56262 25.5024 5.54891 25.5054 5.53527ZM25.4581 5.24664C25.4539 5.24684 25.4497 5.24723 25.4454 5.24766C25.4319 5.24257 25.418 5.2373 25.4039 5.23249C25.4095 5.23244 25.4151 5.23249 25.4207 5.23267C25.4295 5.23584 25.4382 5.23914 25.4469 5.24239C25.4507 5.24377 25.4544 5.24519 25.4581 5.24664ZM25.3122 5.41371C25.3261 5.40127 25.3404 5.39037 25.3549 5.38086C25.3562 5.38159 25.3576 5.38239 25.359 5.38321C25.3029 5.41469 25.2498 5.4816 25.2446 5.55543C25.2426 5.58466 25.2479 5.61118 25.2584 5.63294C25.25 5.62334 25.2424 5.61275 25.2359 5.60112C25.2307 5.59191 25.2263 5.58175 25.2229 5.57082C25.2342 5.51184 25.2673 5.45396 25.3122 5.41371ZM25.0554 5.68518C25.0561 5.70575 25.0593 5.72517 25.0643 5.7434C25.0705 5.76619 25.0791 5.78707 25.0898 5.80603C25.0761 5.79389 25.0645 5.77837 25.0556 5.75868C25.0439 5.7326 25.0374 5.70335 25.0353 5.67216C25.0419 5.67678 25.0487 5.68107 25.0554 5.68518ZM25.1545 5.5674C25.1553 5.57909 25.157 5.5902 25.1593 5.60073C25.1592 5.60135 25.1591 5.602 25.1591 5.60263C25.1509 5.59572 25.1432 5.58811 25.136 5.57858C25.1358 5.57621 25.1357 5.57385 25.1355 5.57148C25.141 5.5582 25.1475 5.54509 25.1546 5.53236C25.1537 5.54439 25.1537 5.55611 25.1545 5.5674ZM25.28 5.2975C25.2607 5.30536 25.2407 5.31562 25.2208 5.32814C25.2269 5.3184 25.2332 5.30877 25.2397 5.29934C25.2581 5.2934 25.2763 5.29148 25.2941 5.29216C25.2894 5.29384 25.2847 5.2956 25.28 5.2975ZM25.3634 5.576C25.3534 5.56952 25.3453 5.56016 25.3416 5.54674C25.34 5.54085 25.3394 5.53297 25.3399 5.52575C25.3439 5.52425 25.348 5.52371 25.352 5.52405C25.3614 5.52473 25.3694 5.52882 25.3769 5.53389C25.3706 5.5477 25.3659 5.56194 25.3634 5.576ZM25.4127 5.45889C25.416 5.45783 25.4193 5.45683 25.4226 5.45584C25.4233 5.45561 25.4241 5.45541 25.4248 5.45517C25.4267 5.45802 25.4285 5.46092 25.4302 5.46386C25.4284 5.4652 25.4267 5.46662 25.4249 5.46809C25.421 5.46477 25.4169 5.46163 25.4127 5.45889ZM25.4304 5.57413C25.4297 5.57525 25.429 5.57633 25.4284 5.57734C25.4268 5.579 25.4251 5.58048 25.4234 5.58179C25.4234 5.58068 25.4234 5.57956 25.4232 5.5784C25.4227 5.57352 25.4224 5.57237 25.4228 5.56954C25.4253 5.57116 25.4278 5.57269 25.4304 5.57413ZM27.4827 4.04009C27.48 4.04176 27.4773 4.04378 27.4747 4.04614C27.4761 4.04378 27.4775 4.0414 27.4789 4.03904C27.4801 4.0394 27.4814 4.03973 27.4827 4.04009ZM27.4257 4.42154C27.4319 4.44227 27.453 4.45277 27.4739 4.43545C27.4722 4.4391 27.4705 4.44276 27.4688 4.44642C27.4655 4.45381 27.4631 4.46123 27.4618 4.46825C27.4413 4.46261 27.4209 4.45698 27.4004 4.45132C27.4088 4.4414 27.4172 4.43149 27.4257 4.42154ZM27.324 4.42394C27.3228 4.42572 27.3215 4.42747 27.3203 4.42925C27.3195 4.42903 27.3187 4.4288 27.3179 4.42857C27.3199 4.42705 27.322 4.4255 27.324 4.42394ZM27.218 4.34716C27.2139 4.35424 27.2097 4.36132 27.2056 4.36839C27.2008 4.37655 27.1981 4.38614 27.1973 4.39533C27.1894 4.39316 27.1816 4.39098 27.1737 4.38881C27.1886 4.37526 27.2034 4.36138 27.218 4.34716ZM27.1139 4.34566C27.1127 4.3478 27.1115 4.3499 27.1103 4.35203C27.1069 4.35797 27.1045 4.3638 27.103 4.36936C27.0988 4.36817 27.0945 4.36698 27.0902 4.36582C27.0982 4.35932 27.1061 4.35262 27.1139 4.34566ZM27.0485 4.21649C27.0225 4.25264 26.9964 4.2888 26.9704 4.32495C26.9688 4.32711 26.9674 4.32932 26.966 4.33158C26.9539 4.32821 26.9417 4.32487 26.9295 4.32152C26.9692 4.2865 27.0089 4.25148 27.0485 4.21649ZM26.9244 4.19078C26.8959 4.22623 26.8672 4.2615 26.8383 4.29636C26.8259 4.29295 26.8136 4.28952 26.8012 4.28611C26.8423 4.25436 26.8833 4.22257 26.9244 4.19078ZM26.7179 4.25369C26.7176 4.25394 26.7174 4.25419 26.7171 4.25445C26.7149 4.25658 26.7129 4.25886 26.7109 4.26123C26.7091 4.26075 26.7073 4.26024 26.7055 4.25976C26.7096 4.25775 26.7138 4.25577 26.7179 4.25369ZM26.7204 3.84479C26.7227 3.84049 26.7251 3.83619 26.7275 3.83185C26.7301 3.83258 26.7326 3.83327 26.7352 3.834C26.7303 3.83761 26.7253 3.84121 26.7204 3.84479ZM26.7969 3.89626C26.8073 3.88405 26.8178 3.87184 26.8282 3.85963C26.8306 3.86029 26.8329 3.86095 26.8353 3.86161C26.8226 3.87339 26.8097 3.88497 26.7969 3.89626ZM27.1912 3.95973C27.2001 3.96219 27.209 3.96464 27.218 3.9671C27.1928 3.98933 27.1675 4.01159 27.1423 4.03386C27.1536 4.02027 27.1648 4.00673 27.1762 3.99328C27.1843 3.9837 27.1893 3.97147 27.1912 3.95973ZM27.6342 4.08345C27.6343 4.08296 27.6344 4.08246 27.6345 4.08193C27.6364 4.08246 27.6384 4.083 27.6403 4.08353C27.6383 4.08328 27.6363 4.08324 27.6342 4.08345ZM27.6989 4.12347C27.6904 4.12211 27.6803 4.12553 27.6699 4.13602C27.6633 4.14256 27.6568 4.14912 27.6503 4.15566C27.6518 4.15323 27.6532 4.15084 27.6547 4.14842C27.6683 4.12618 27.6644 4.09869 27.6522 4.08864C27.6505 4.08724 27.6486 4.08614 27.6468 4.0853C27.6697 4.09163 27.6926 4.09795 27.7155 4.10425C27.7099 4.11062 27.7044 4.11702 27.6989 4.12347ZM27.8514 4.16457C27.8465 4.16344 27.8412 4.1636 27.8357 4.16521C27.8406 4.15776 27.8455 4.15024 27.8503 4.1427C27.8541 4.14376 27.8579 4.14485 27.8617 4.14587C27.8582 4.15211 27.8548 4.15832 27.8514 4.16457ZM26.9303 3.88777C26.9089 3.90859 26.8873 3.92875 26.8656 3.94816C26.8834 3.92722 26.901 3.90601 26.9185 3.88454C26.9224 3.8856 26.9263 3.88668 26.9303 3.88777ZM27.9778 4.0693C27.974 4.0525 27.9647 4.04652 27.9514 4.04283C27.911 4.03169 27.8705 4.02054 27.8301 4.00939C27.7331 3.98266 27.6361 3.95589 27.5391 3.92915C27.4221 3.89692 27.3052 3.86469 27.1883 3.83243C27.0872 3.80458 26.9862 3.7767 26.8851 3.74886C26.8518 3.73967 26.8184 3.73045 26.7851 3.72127C26.7693 3.71694 26.7538 3.71101 26.7375 3.70815C26.7368 3.70803 26.7361 3.70775 26.7354 3.70757C26.7177 3.70272 26.6928 3.72495 26.6808 3.74674C26.5921 3.90802 26.5033 4.06934 26.4145 4.23063C26.4136 4.23215 26.4127 4.23366 26.412 4.23517C26.3666 4.31765 26.3212 4.40012 26.2758 4.48257C26.1413 4.72685 26.0069 4.97113 25.8724 5.2154C25.8399 5.27446 25.8074 5.33348 25.7749 5.39254C25.7721 5.36854 25.767 5.34564 25.7599 5.32425C25.749 5.29178 25.73 5.26513 25.7107 5.24173C25.6643 5.18573 25.6059 5.14468 25.5451 5.1113C25.4637 5.06664 25.3737 5.0343 25.2649 5.0785C25.1723 5.11615 25.0869 5.20923 25.0284 5.31661C24.9678 5.42784 24.9394 5.55091 24.9487 5.65816C24.9581 5.76565 25.0033 5.85073 25.0703 5.90063C25.1455 5.95666 25.2488 5.96299 25.3519 5.93862C25.4496 5.91551 25.5621 5.86781 25.6504 5.77209C25.672 5.74876 25.6907 5.72245 25.7074 5.69394C25.7207 5.67066 25.7321 5.6469 25.7416 5.62297C25.8683 5.39281 25.995 5.16266 26.1216 4.9325C26.2343 4.72782 26.347 4.52312 26.4596 4.31844C26.4905 4.32696 26.5214 4.33544 26.5523 4.34396C26.6493 4.37073 26.7463 4.39747 26.8433 4.42423C26.9603 4.45647 27.0772 4.48869 27.1941 4.52093C27.2952 4.5488 27.3962 4.57665 27.4973 4.60453C27.5297 4.61345 27.5621 4.62238 27.5945 4.63131C27.5603 4.69348 27.526 4.75566 27.4918 4.81783C27.3573 5.06211 27.2229 5.30639 27.0884 5.55067C27.0502 5.62005 27.012 5.68944 26.9739 5.7588C26.971 5.73528 26.966 5.71276 26.959 5.69175C26.9481 5.65928 26.9291 5.63263 26.9097 5.60923C26.8633 5.55323 26.805 5.51218 26.7442 5.47877C26.6628 5.43414 26.5728 5.4018 26.464 5.446C26.3714 5.48365 26.286 5.57673 26.2275 5.68411C26.1669 5.79535 26.1385 5.91838 26.1478 6.02566C26.1572 6.13315 26.2023 6.21823 26.2694 6.26813C26.3446 6.32416 26.4479 6.33049 26.551 6.30609C26.6486 6.28301 26.7611 6.23531 26.8495 6.13959C26.8711 6.11623 26.8898 6.08992 26.9065 6.06141C26.9208 6.03654 26.9327 6.01111 26.9426 5.98554C27.0743 5.74626 27.206 5.50701 27.3377 5.26776C27.4584 5.04833 27.5792 4.82887 27.7 4.6094C27.7009 4.60785 27.7018 4.60628 27.7026 4.60471C27.7154 4.58147 27.7282 4.5582 27.741 4.53496C27.8172 4.39664 27.8933 4.25835 27.9694 4.12006C27.9788 4.10294 27.9812 4.08418 27.9778 4.0693Z" fill="#040606"/>
  <path d="M12.368 2.83606C12.3701 2.82746 12.3726 2.81923 12.3754 2.81134C12.375 2.81261 12.3746 2.81383 12.3742 2.81506C12.3623 2.85387 12.3595 2.89826 12.3618 2.94369C12.3628 2.96395 12.365 2.98456 12.368 3.00521C12.368 3.00767 12.3679 3.01009 12.3679 3.01254C12.3559 2.95065 12.3546 2.88913 12.368 2.83606ZM12.8437 2.61032C12.8478 2.61105 12.8518 2.61192 12.8559 2.61276C12.8578 2.61334 12.8598 2.61376 12.8617 2.6143C12.8674 2.61589 12.873 2.61766 12.8786 2.61974C12.8832 2.62147 12.8877 2.62361 12.8922 2.6257C12.8949 2.62698 12.8976 2.62811 12.9003 2.62939C12.9034 2.6309 12.9064 2.63246 12.9094 2.6341C12.9103 2.6346 12.9112 2.63515 12.9121 2.63565C12.9118 2.63543 12.9122 2.63562 12.9138 2.63656C12.9142 2.6368 12.9146 2.63704 12.9151 2.63725C12.9148 2.63711 12.9145 2.63697 12.9143 2.63686C12.9148 2.63716 12.9153 2.63747 12.916 2.6379C12.9266 2.64464 12.9372 2.65189 12.9475 2.65999C12.9456 2.65872 12.9437 2.65733 12.9418 2.6561C12.8889 2.62271 12.8349 2.61075 12.7848 2.61665C12.7723 2.61156 12.7599 2.6079 12.7476 2.60539C12.7565 2.60491 12.7654 2.60462 12.7744 2.6046C12.7972 2.60459 12.8204 2.60612 12.8437 2.61032ZM13.0432 2.8436C13.0458 2.84688 13.0486 2.84984 13.0516 2.85252C13.065 2.87175 13.076 2.8933 13.0815 2.91811C13.0836 2.92749 13.0851 2.93696 13.086 2.94645C13.079 2.93087 13.0711 2.91582 13.0624 2.90151C13.0572 2.88185 13.0507 2.86242 13.0432 2.8436ZM13.013 3.07699C13.0133 3.06889 13.0133 3.06075 13.0129 3.05256C13.0146 3.04617 13.016 3.03963 13.0173 3.03295C13.0168 3.04481 13.0159 3.05653 13.0144 3.06801C13.014 3.07104 13.0135 3.07402 13.013 3.07699ZM12.8612 2.88983C12.8714 2.89202 12.8816 2.89771 12.8912 2.90581C12.8886 2.91387 12.8857 2.92161 12.8825 2.92904C12.8767 2.9152 12.8694 2.90194 12.8612 2.88983ZM12.6023 2.7175C12.5993 2.72087 12.5963 2.72437 12.5934 2.72795C12.5791 2.73464 12.5645 2.74141 12.55 2.74874C12.5542 2.7444 12.5586 2.74016 12.5629 2.73604C12.5721 2.73162 12.5813 2.72732 12.5905 2.723C12.5944 2.72114 12.5984 2.7193 12.6023 2.7175ZM12.6197 2.94971C12.6207 2.93012 12.6232 2.91134 12.627 2.8934C12.6286 2.89287 12.6302 2.8924 12.6319 2.89193C12.6134 2.95749 12.6244 3.04644 12.6774 3.10374C12.6984 3.12643 12.7229 3.14151 12.7477 3.14918C12.7339 3.14871 12.7199 3.14688 12.7059 3.14347C12.6949 3.14078 12.6837 3.1368 12.6726 3.13151C12.6357 3.08028 12.6164 3.01316 12.6197 2.94971ZM12.6329 3.34212C12.6492 3.35648 12.6667 3.36806 12.6845 3.37743C12.7068 3.38911 12.7296 3.39759 12.7524 3.40314C12.7325 3.40482 12.7117 3.40249 12.6897 3.39502C12.6606 3.38518 12.6331 3.36905 12.6074 3.34809C12.616 3.3464 12.6245 3.34433 12.6329 3.34212ZM12.6177 3.18134C12.6274 3.18913 12.6372 3.19585 12.6471 3.20169C12.6475 3.2022 12.648 3.20275 12.6484 3.20326C12.6368 3.20452 12.625 3.20492 12.6122 3.20346C12.6102 3.20194 12.6083 3.20037 12.6064 3.19875C12.6003 3.18496 12.5951 3.17057 12.5908 3.15592C12.5993 3.16529 12.6084 3.17381 12.6177 3.18134ZM12.5054 2.89041C12.4967 2.91086 12.4893 2.93358 12.4838 2.95777C12.481 2.9461 12.4783 2.93434 12.476 2.92255C12.4855 2.90416 12.498 2.88886 12.5121 2.87579C12.5098 2.88058 12.5075 2.88544 12.5054 2.89041ZM12.7841 3.02781C12.7714 3.03071 12.758 3.03022 12.7448 3.02334C12.739 3.02032 12.7325 3.01508 12.7274 3.00945C12.7292 3.00532 12.7319 3.00185 12.7353 2.99896C12.7429 2.99235 12.7523 2.98912 12.7618 2.98711C12.7677 3.00188 12.7751 3.01572 12.7841 3.02781ZM12.7314 2.90554C12.7331 2.90223 12.7348 2.89894 12.7366 2.89578C12.737 2.89504 12.7374 2.89433 12.7378 2.8936C12.7414 2.8942 12.745 2.89492 12.7486 2.89575C12.7483 2.89806 12.748 2.90044 12.7478 2.90279C12.7422 2.90341 12.7367 2.90427 12.7314 2.90554ZM12.8338 2.97522C12.8342 2.97656 12.8345 2.97787 12.8347 2.97912C12.8348 2.98151 12.8347 2.98386 12.8344 2.98609C12.8335 2.98531 12.8326 2.98455 12.8317 2.9838C12.8275 2.98067 12.8263 2.98006 12.8245 2.97773C12.8276 2.977 12.8308 2.97616 12.8338 2.97522ZM11.4952 1.75959C11.4966 1.75495 11.498 1.75027 11.4993 1.74556C11.5004 1.74873 11.5018 1.75183 11.5034 1.75485C11.5007 1.75643 11.498 1.75801 11.4952 1.75959ZM11.4099 1.79691C11.4059 1.78385 11.4019 1.77083 11.3979 1.75781C11.4002 1.75633 11.4024 1.75444 11.4043 1.75214C11.4041 1.75452 11.404 1.75688 11.4039 1.75929C11.4027 1.77752 11.408 1.79341 11.4163 1.80528C11.4152 1.8059 11.4141 1.80651 11.4131 1.80713C11.412 1.8037 11.411 1.80031 11.4099 1.79691ZM11.1677 3.48734C11.1699 3.47873 11.1724 3.47054 11.1752 3.46265C11.1748 3.46389 11.1743 3.4651 11.1739 3.46637C11.162 3.50515 11.1593 3.54954 11.1615 3.59497C11.1626 3.61526 11.1647 3.63584 11.1678 3.65652C11.1677 3.65895 11.1677 3.6614 11.1676 3.66381C11.1557 3.60193 11.1543 3.54041 11.1677 3.48734ZM11.6435 3.2616C11.6475 3.26232 11.6516 3.2632 11.6556 3.26404C11.6576 3.26461 11.6595 3.26504 11.6615 3.26558C11.6671 3.26716 11.6727 3.26893 11.6783 3.27105C11.6829 3.27275 11.6874 3.27489 11.692 3.27698C11.6947 3.27826 11.6974 3.27938 11.7001 3.2807C11.7031 3.28218 11.7062 3.28374 11.7092 3.28541C11.7101 3.28588 11.711 3.28642 11.7119 3.28693C11.7115 3.2867 11.712 3.2869 11.7135 3.28783C11.714 3.28807 11.7144 3.28832 11.7148 3.28852C11.7145 3.28839 11.7143 3.28828 11.714 3.28813C11.7145 3.28843 11.715 3.28875 11.7157 3.28918C11.7264 3.29592 11.7369 3.30316 11.7473 3.31127C11.7454 3.31 11.7434 3.30861 11.7415 3.30741C11.6886 3.27402 11.6346 3.26202 11.5845 3.26793C11.5721 3.26284 11.5597 3.25917 11.5474 3.2567C11.5562 3.25619 11.5651 3.25593 11.5741 3.25591C11.5969 3.25587 11.6201 3.25739 11.6435 3.2616ZM11.8813 3.56942C11.8833 3.5788 11.8848 3.58824 11.8858 3.59772C11.8787 3.58215 11.8708 3.56709 11.8622 3.55279C11.8604 3.54613 11.8584 3.53948 11.8564 3.53291C11.862 3.53945 11.8684 3.54478 11.875 3.54835C11.8775 3.55512 11.8796 3.5621 11.8813 3.56942ZM11.8128 3.72827C11.8131 3.72017 11.813 3.71202 11.8126 3.70383C11.8143 3.69745 11.8158 3.6909 11.8171 3.68427C11.8166 3.69609 11.8156 3.70781 11.8141 3.71932C11.8137 3.72231 11.8133 3.72529 11.8128 3.72827ZM11.6609 3.5411C11.6712 3.5433 11.6814 3.54899 11.6909 3.55712C11.6883 3.56515 11.6854 3.57289 11.6822 3.58035C11.6764 3.56648 11.6692 3.55322 11.6609 3.5411ZM11.4021 3.36878C11.399 3.37215 11.3961 3.37568 11.3932 3.37923C11.3789 3.38592 11.3642 3.39268 11.3497 3.40002C11.354 3.39568 11.3583 3.39143 11.3627 3.38732C11.3718 3.38289 11.3811 3.3786 11.3902 3.37428C11.3942 3.37241 11.3981 3.37058 11.4021 3.36878ZM11.4195 3.60099C11.4205 3.58139 11.423 3.56261 11.4267 3.54468C11.4283 3.54414 11.43 3.54367 11.4316 3.54324C11.4131 3.6088 11.4241 3.69772 11.4771 3.75502C11.4981 3.7777 11.5226 3.79282 11.5475 3.80046C11.5336 3.79999 11.5196 3.79815 11.5057 3.79474C11.4946 3.79206 11.4834 3.78808 11.4724 3.78279C11.4355 3.73155 11.4161 3.66443 11.4195 3.60099ZM11.4326 3.99339C11.449 4.00776 11.4664 4.01933 11.4843 4.02871C11.5066 4.04042 11.5293 4.04887 11.5521 4.05441C11.5323 4.0561 11.5114 4.05377 11.4895 4.04633C11.4604 4.03645 11.4328 4.02032 11.4072 3.99936C11.4158 3.99768 11.4242 3.99561 11.4326 3.99339ZM11.4174 3.83261C11.4271 3.84041 11.4369 3.84716 11.4469 3.85297C11.4473 3.85348 11.4477 3.85402 11.4481 3.85453C11.4365 3.85579 11.4248 3.8562 11.412 3.85478C11.41 3.85322 11.408 3.85164 11.4061 3.85003C11.4001 3.83623 11.3949 3.82185 11.3905 3.80719C11.3991 3.81657 11.4081 3.82508 11.4174 3.83261ZM11.3052 3.54168C11.2965 3.56213 11.2891 3.58485 11.2836 3.60905C11.2807 3.59737 11.2781 3.58562 11.2758 3.57383C11.2853 3.55544 11.2977 3.54013 11.3118 3.52707C11.3095 3.53186 11.3073 3.53671 11.3052 3.54168ZM11.5838 3.67909C11.5712 3.68202 11.5577 3.6815 11.5446 3.67462C11.5388 3.6716 11.5322 3.66635 11.5271 3.66073C11.529 3.6566 11.5317 3.65313 11.535 3.65027C11.5427 3.64362 11.552 3.6404 11.5616 3.63839C11.5674 3.65316 11.5749 3.66699 11.5838 3.67909ZM11.5311 3.55682C11.5328 3.5535 11.5346 3.55026 11.5363 3.54705C11.5367 3.54631 11.5371 3.54561 11.5375 3.54487C11.5411 3.54551 11.5447 3.54623 11.5483 3.54703C11.548 3.54934 11.5478 3.55171 11.5476 3.5541C11.542 3.55472 11.5365 3.55555 11.5311 3.55682ZM11.6336 3.6265C11.6339 3.62783 11.6342 3.62915 11.6345 3.6304C11.6345 3.63282 11.6344 3.63514 11.6342 3.63737C11.6333 3.63659 11.6324 3.63582 11.6314 3.63508C11.6272 3.63195 11.6261 3.63137 11.6242 3.62901C11.6274 3.62828 11.6305 3.62744 11.6336 3.6265ZM12.019 0.949441C12.0182 0.952708 12.0177 0.956228 12.0175 0.959953C12.0167 0.957191 12.016 0.954396 12.0152 0.951633C12.0165 0.950914 12.0177 0.95016 12.019 0.949441ZM12.2697 1.26857C12.2904 1.27878 12.3147 1.27022 12.3173 1.24176C12.3188 1.24568 12.3203 1.24965 12.3219 1.25356C12.325 1.26144 12.3289 1.26863 12.3333 1.27468C12.3133 1.28626 12.2934 1.29784 12.2734 1.30938C12.2721 1.29579 12.2709 1.2822 12.2697 1.26857ZM12.1938 1.34806C12.1942 1.35028 12.1946 1.35246 12.1951 1.35468C12.1943 1.35514 12.1935 1.35559 12.1927 1.35604C12.1931 1.3534 12.1934 1.35073 12.1938 1.34806ZM12.0535 1.37362C12.0558 1.3819 12.0581 1.39019 12.0604 1.39847C12.063 1.40801 12.0683 1.41702 12.0748 1.42426C12.0672 1.4287 12.0595 1.43313 12.0518 1.43757C12.0527 1.4164 12.0533 1.39509 12.0535 1.37362ZM11.9728 1.4521C11.9735 1.45458 11.9742 1.45702 11.9749 1.45949C11.9769 1.46639 11.9796 1.47241 11.9828 1.47754C11.9786 1.47995 11.9744 1.48236 11.9702 1.4848C11.9713 1.47398 11.9722 1.46309 11.9728 1.4521ZM11.8231 1.4088C11.8311 1.45483 11.8391 1.50087 11.8471 1.5469C11.8475 1.54964 11.8482 1.55234 11.8489 1.55501C11.837 1.56186 11.8251 1.56874 11.8132 1.57563C11.8165 1.52001 11.8198 1.46439 11.8231 1.4088ZM11.7084 1.48514C11.7139 1.53255 11.7193 1.57991 11.724 1.62724C11.7119 1.63423 11.6998 1.64118 11.6878 1.64817C11.6947 1.59385 11.7015 1.5395 11.7084 1.48514ZM11.5991 1.68845C11.599 1.68883 11.599 1.68921 11.599 1.6896C11.599 1.69281 11.5992 1.69603 11.5995 1.69924C11.5978 1.70027 11.596 1.70127 11.5943 1.70231C11.5959 1.69769 11.5975 1.69312 11.5991 1.68845ZM11.2855 1.39122C11.2839 1.3863 11.2824 1.38138 11.2809 1.37643C11.2834 1.37498 11.286 1.37351 11.2885 1.37207C11.2875 1.37846 11.2865 1.38486 11.2855 1.39122ZM11.3837 1.3699C11.3822 1.3531 11.3808 1.33629 11.3794 1.31949C11.3817 1.31815 11.384 1.31681 11.3863 1.31548C11.3856 1.33374 11.3848 1.35191 11.3837 1.3699ZM11.7341 1.11426C11.7428 1.10922 11.7515 1.10417 11.7602 1.09913C11.7581 1.13446 11.756 1.16981 11.7539 1.20517C11.752 1.18676 11.7502 1.16837 11.7485 1.14998C11.7473 1.13688 11.7417 1.12418 11.7341 1.11426ZM12.1683 0.864922C12.168 0.864489 12.1676 0.864059 12.1673 0.863594C12.1692 0.86252 12.1711 0.861445 12.1729 0.860371C12.1712 0.861692 12.1697 0.863199 12.1683 0.864922ZM12.2486 0.844383C12.241 0.849927 12.236 0.860098 12.2361 0.875661C12.2361 0.885367 12.2362 0.895108 12.2362 0.904815C12.2355 0.90193 12.2348 0.89908 12.234 0.896195C12.2273 0.869742 12.2031 0.852836 12.186 0.854973C12.1836 0.855261 12.1814 0.855844 12.1793 0.856686C12.2017 0.843743 12.224 0.830801 12.2464 0.817825C12.2471 0.826685 12.2478 0.835525 12.2486 0.844383ZM12.3969 0.75749C12.3923 0.76042 12.3883 0.764623 12.3853 0.769979C12.3834 0.760832 12.3813 0.751676 12.3792 0.742537C12.3829 0.740397 12.3866 0.738292 12.3903 0.736119C12.3925 0.743254 12.3947 0.750355 12.3969 0.75749ZM11.4791 1.26178C11.4788 1.29318 11.4779 1.32423 11.4762 1.35486C11.4737 1.32609 11.4708 1.29729 11.4676 1.26846C11.4714 1.26621 11.4752 1.26399 11.4791 1.26178ZM12.42 0.592021C12.4042 0.582789 12.3924 0.585585 12.3794 0.593122C12.3399 0.615968 12.3004 0.638815 12.2609 0.661661C12.1661 0.716528 12.0713 0.77136 11.9765 0.826227C11.8622 0.892343 11.7479 0.958459 11.6337 1.02454C11.5349 1.0817 11.4361 1.13882 11.3374 1.19598C11.3048 1.21483 11.2722 1.23365 11.2396 1.2525C11.2243 1.26141 11.2078 1.269 11.1931 1.27941C11.1925 1.27989 11.1917 1.28021 11.1911 1.28063C11.1738 1.29061 11.1719 1.32571 11.1796 1.35061C11.2362 1.53498 11.2927 1.71939 11.3493 1.90376C11.3498 1.90554 11.3503 1.90727 11.3509 1.90895C11.3798 2.00323 11.4088 2.09751 11.4377 2.19176C11.5234 2.471 11.609 2.75024 11.6947 3.02948C11.7154 3.09698 11.7361 3.16445 11.7568 3.23196C11.7362 3.21681 11.7146 3.2041 11.6927 3.19414C11.6593 3.17901 11.6242 3.17428 11.5914 3.17216C11.5127 3.16718 11.4364 3.18217 11.3641 3.20455C11.2675 3.23446 11.1737 3.27997 11.1246 3.39505C11.0829 3.49304 11.0894 3.62554 11.1276 3.74784C11.167 3.87453 11.2403 3.98515 11.3302 4.05546C11.4203 4.12594 11.5204 4.15286 11.6102 4.13764C11.7109 4.12059 11.7948 4.04623 11.8548 3.94982C11.9116 3.85845 11.9608 3.73798 11.9545 3.60127C11.953 3.56795 11.947 3.53465 11.9378 3.50125C11.93 3.47426 11.9204 3.44842 11.9092 3.42389C11.8284 3.16079 11.7477 2.8977 11.667 2.6346C11.5952 2.40063 11.5234 2.16662 11.4516 1.93265C11.4818 1.9152 11.5119 1.89772 11.5421 1.88027C11.6369 1.82544 11.7317 1.77057 11.8265 1.71574C11.9408 1.64962 12.0551 1.58351 12.1693 1.51739C12.2681 1.46027 12.3668 1.40311 12.4656 1.34599C12.4973 1.32767 12.5289 1.30935 12.5606 1.29103C12.5824 1.3621 12.6042 1.43318 12.626 1.50425C12.7117 1.78349 12.7974 2.06273 12.883 2.34197C12.9074 2.42129 12.9317 2.50061 12.956 2.57989C12.9357 2.56512 12.9145 2.55264 12.8929 2.54287C12.8595 2.52774 12.8245 2.523 12.7916 2.52089C12.7129 2.51591 12.6366 2.53089 12.5644 2.55324C12.4678 2.58319 12.3739 2.62869 12.3249 2.74377C12.2831 2.84176 12.2897 2.97426 12.3278 3.09656C12.3673 3.22325 12.4405 3.33384 12.5304 3.40418C12.6205 3.47466 12.7207 3.50158 12.8105 3.48636C12.9112 3.46932 12.995 3.39496 13.055 3.29851C13.1119 3.20717 13.1611 3.0867 13.1548 2.95C13.1533 2.91664 13.1473 2.88334 13.1381 2.84994C13.1297 2.82111 13.1193 2.79359 13.1071 2.7676C13.0231 2.49407 12.9392 2.22058 12.8553 1.94709C12.7783 1.69625 12.7014 1.44538 12.6244 1.19451C12.6239 1.19269 12.6233 1.19089 12.6227 1.18914C12.6146 1.16258 12.6064 1.13597 12.5983 1.10941C12.5497 0.951292 12.5012 0.793212 12.4527 0.635131C12.4467 0.615561 12.4341 0.60021 12.42 0.592021Z" fill="#040606"/>
  <path d="M15.9425 2.73967C15.9426 2.73966 15.9428 2.73962 15.9429 2.73956C15.9434 2.74028 15.9442 2.741 15.9452 2.74168C15.9445 2.74091 15.9438 2.74013 15.9432 2.73948C15.9434 2.73939 15.9437 2.73934 15.944 2.73924C15.9456 2.74085 15.9473 2.74238 15.949 2.74383C15.9491 2.74385 15.9492 2.74387 15.9492 2.74389C15.9471 2.74169 15.9455 2.74011 15.9444 2.73911C15.9565 2.73548 15.9686 2.7318 15.9808 2.7281C15.9807 2.72843 15.9806 2.72867 15.9805 2.72904C15.9802 2.73038 15.98 2.73169 15.98 2.73273C15.9789 2.73447 15.9777 2.73612 15.9769 2.73784C15.9747 2.73957 15.9726 2.74138 15.9706 2.74317C15.9679 2.74454 15.965 2.74616 15.9637 2.74662C15.9629 2.74691 15.9624 2.74713 15.9617 2.74735C15.9579 2.74645 15.954 2.74544 15.9503 2.74483C15.9718 2.74864 15.9555 2.74511 15.9504 2.74421C15.95 2.74415 15.9496 2.74402 15.9492 2.74389C15.9496 2.74419 15.9498 2.74444 15.95 2.74477C15.9497 2.74447 15.9493 2.74414 15.949 2.74383C15.9476 2.74334 15.9463 2.74257 15.9452 2.74168C15.9456 2.74217 15.946 2.74265 15.9464 2.74318C15.9453 2.74261 15.9439 2.74132 15.9425 2.73967ZM15.56 2.49834C15.5629 2.49411 15.5659 2.48984 15.5688 2.48552C15.5698 2.49119 15.5713 2.49659 15.5732 2.50179C15.5688 2.50063 15.5644 2.49942 15.56 2.49834ZM15.0644 5.55824C15.0667 5.54345 15.0698 5.52905 15.0735 5.51493C15.073 5.51715 15.0724 5.51932 15.0719 5.52156C15.0572 5.58969 15.0613 5.66027 15.0754 5.72899C15.0817 5.7597 15.0903 5.79006 15.1006 5.81993C15.101 5.82375 15.1015 5.82756 15.1019 5.83137C15.0656 5.74377 15.0499 5.6495 15.0644 5.55824ZM15.9343 4.88334C15.9423 4.88169 15.9503 4.88025 15.9583 4.87876C15.9622 4.87833 15.9661 4.87766 15.9699 4.87716C15.9811 4.87576 15.9924 4.87465 16.0036 4.87409C16.0128 4.87358 16.022 4.87379 16.0312 4.87393C16.0367 4.87404 16.0422 4.87392 16.0477 4.87411C16.0539 4.87433 16.0601 4.87465 16.0663 4.87516C16.0681 4.87528 16.0699 4.87552 16.0717 4.87569C16.071 4.87556 16.072 4.87555 16.0751 4.87596C16.076 4.87605 16.0769 4.87613 16.0777 4.87615C16.0772 4.87613 16.0767 4.87613 16.0761 4.87608C16.0771 4.87623 16.0782 4.87634 16.0796 4.87656C16.1017 4.87967 16.1236 4.88364 16.1453 4.8891C16.1413 4.88846 16.1373 4.88767 16.1333 4.88708C16.0242 4.87161 15.9174 4.89001 15.822 4.93345C15.7968 4.93411 15.7721 4.93692 15.7479 4.9415C15.7649 4.93466 15.782 4.92816 15.7993 4.92201C15.8433 4.9063 15.8883 4.89282 15.9343 4.88334ZM16.4589 5.19681C16.4649 5.20989 16.4697 5.22351 16.4736 5.23753C16.4567 5.21823 16.4382 5.20036 16.4185 5.18414C16.4101 5.16851 16.4009 5.15327 16.3911 5.13852C16.3985 5.13856 16.4059 5.13773 16.4131 5.13599C16.4318 5.15277 16.4477 5.17262 16.4589 5.19681ZM16.3606 5.48943C16.3594 5.47673 16.3576 5.46416 16.3551 5.45174C16.357 5.44073 16.3584 5.42959 16.3594 5.41846C16.3611 5.43705 16.3617 5.45585 16.3613 5.47468C16.3611 5.47961 16.3609 5.48452 16.3606 5.48943ZM16.0277 5.30381C16.0479 5.30021 16.0687 5.30204 16.089 5.30804C16.0857 5.32225 16.0817 5.33623 16.0771 5.34994C16.0629 5.33247 16.0462 5.31692 16.0277 5.30381ZM15.4914 5.21436C15.4862 5.22173 15.4812 5.22917 15.4764 5.23666C15.4502 5.2568 15.4234 5.27727 15.397 5.29856C15.4043 5.28892 15.4117 5.27939 15.4193 5.27005C15.436 5.25691 15.4529 5.24396 15.4697 5.23101C15.4769 5.22541 15.4841 5.21987 15.4914 5.21436ZM15.5744 5.56176C15.5722 5.53075 15.573 5.49999 15.5764 5.46969C15.5794 5.46775 15.5825 5.46587 15.5856 5.46406C15.5639 5.57818 15.6041 5.70827 15.7186 5.7606C15.7639 5.78132 15.8144 5.7879 15.864 5.78276C15.8372 5.7915 15.8098 5.79825 15.7821 5.80252C15.7602 5.80594 15.7377 5.80744 15.7153 5.80682C15.6332 5.75279 15.5816 5.66218 15.5744 5.56176ZM15.6834 6.15991C15.7181 6.17091 15.7542 6.1769 15.7907 6.17916C15.8363 6.182 15.882 6.17951 15.9271 6.1725C15.8892 6.18872 15.8485 6.19935 15.8045 6.20286C15.7462 6.2075 15.6896 6.20142 15.6357 6.18653C15.6519 6.17805 15.6679 6.16908 15.6834 6.15991ZM15.6199 5.92158C15.6402 5.92697 15.6607 5.93067 15.681 5.93288C15.6819 5.93338 15.6829 5.93391 15.6838 5.93441C15.6617 5.9443 15.6391 5.95297 15.6141 5.95955C15.6099 5.95849 15.6058 5.9574 15.6018 5.9562C15.5872 5.93901 15.5741 5.92037 15.5625 5.90063C15.5811 5.90924 15.6003 5.91631 15.6199 5.92158ZM15.3412 5.54823C15.3288 5.58582 15.3194 5.62606 15.3139 5.66724C15.3059 5.65115 15.2983 5.63477 15.2914 5.61814C15.3058 5.58313 15.3265 5.55094 15.3509 5.52108C15.3475 5.53006 15.3443 5.53908 15.3412 5.54823ZM15.9083 5.57014C15.8845 5.58327 15.8584 5.59168 15.8315 5.59004C15.8198 5.58933 15.806 5.58568 15.7949 5.58054C15.7976 5.57282 15.8021 5.56567 15.8079 5.55892C15.8213 5.54337 15.8386 5.53202 15.8567 5.52235C15.8712 5.54117 15.8884 5.55749 15.9083 5.57014ZM15.7805 5.41697C15.7831 5.41068 15.7858 5.40446 15.7885 5.39831C15.789 5.39691 15.7897 5.39552 15.7903 5.39412C15.7974 5.39265 15.8045 5.39124 15.8116 5.39005C15.8115 5.39384 15.8115 5.3977 15.8117 5.40151C15.801 5.40631 15.7906 5.41134 15.7805 5.41697ZM15.9931 5.45464C15.9941 5.45653 15.9949 5.45831 15.9957 5.46007C15.9963 5.46377 15.9966 5.46745 15.9965 5.47107C15.9947 5.47047 15.9927 5.4699 15.9907 5.46941C15.982 5.46742 15.9796 5.46733 15.9755 5.46496C15.9815 5.46167 15.9873 5.45824 15.9931 5.45464ZM15.0514 2.32746C15.037 2.33765 15.0225 2.34762 15.0079 2.35745C15.008 2.34867 15.0083 2.33997 15.0088 2.33123C15.023 2.33032 15.0372 2.32899 15.0514 2.32746ZM15.4927 2.2589C15.4686 2.29348 15.4443 2.328 15.4196 2.36211C15.4122 2.33054 15.4092 2.30652 15.4063 2.26446C15.4134 2.26366 15.4206 2.26293 15.4277 2.26224C15.4493 2.26027 15.471 2.2591 15.4927 2.2589ZM15.7125 2.55267C15.7132 2.55226 15.714 2.55186 15.7147 2.55145C15.7193 2.54872 15.7238 2.54601 15.7283 2.54328C15.7275 2.54859 15.7266 2.55392 15.7257 2.55923C15.7213 2.55699 15.7169 2.55479 15.7125 2.55267ZM15.9633 2.7475C15.9647 2.74706 15.9659 2.74673 15.9666 2.74654C15.9664 2.74676 15.9662 2.74694 15.9659 2.74711C15.9652 2.74732 15.9643 2.74747 15.9633 2.7475ZM15.9615 2.74745C15.9544 2.747 15.9458 2.74399 15.9617 2.74738C15.9616 2.74737 15.9615 2.74742 15.9615 2.74745ZM15.7267 2.11201C15.605 2.06162 15.4762 2.05889 15.3498 2.07809C15.2756 2.08941 15.2027 2.10605 15.1291 2.12058C15.1128 2.12383 15.0963 2.12679 15.0799 2.12975C15.0774 2.1302 15.0755 2.1306 15.074 2.13086C15.0725 2.13104 15.0706 2.13129 15.0682 2.13163C15.0592 2.13285 15.0502 2.13411 15.0412 2.13521C15.0053 2.13955 14.969 2.14192 14.9326 2.14114C14.9265 2.14098 14.9204 2.14079 14.9143 2.14051C14.9095 2.14024 14.9046 2.1399 14.8997 2.1395C14.8991 2.13941 14.8987 2.13938 14.898 2.1393C14.883 2.13696 14.868 2.13456 14.8531 2.13117C14.838 2.12779 14.8232 2.12372 14.8085 2.11893C14.806 2.11815 14.7806 2.10779 14.7998 2.11601C14.792 2.11268 14.7843 2.10949 14.7767 2.10586C14.7615 2.09867 14.7473 2.09007 14.7327 2.08177C14.7315 2.08111 14.7305 2.08057 14.7296 2.08008C14.7295 2.08002 14.7294 2.07992 14.7293 2.07982C14.7218 2.07384 14.7142 2.06809 14.7069 2.0617C14.7028 2.05808 14.6989 2.0544 14.695 2.05054C14.6915 2.04718 14.6751 2.02637 14.6809 2.03486C14.6778 2.03052 14.6748 2.02613 14.6719 2.0217C14.6673 2.01415 14.6628 2.00655 14.6582 1.99895C14.6319 1.95533 14.5672 1.93905 14.5267 1.96775C14.4826 1.99912 14.4744 2.05222 14.5004 2.10026C14.5055 2.10971 14.511 2.11881 14.5169 2.12768C14.7445 2.50549 14.9726 2.88306 15.2008 3.26052C15.4391 3.65494 15.6775 4.04923 15.9158 4.44367C15.9777 4.54633 16.0396 4.6491 16.1016 4.75177C16.073 4.74774 16.044 4.74553 16.0149 4.74529C15.9472 4.74472 15.8785 4.76141 15.8147 4.7806C15.6618 4.82675 15.5178 4.90217 15.3831 4.98626C15.203 5.09868 15.0317 5.2333 14.9616 5.44496C14.9019 5.62512 14.9428 5.82563 15.0424 5.98877C15.1456 6.15777 15.3106 6.27879 15.499 6.32604C15.6879 6.37342 15.887 6.34649 16.057 6.26154C16.2477 6.16617 16.3936 5.99375 16.4889 5.80349C16.5791 5.62321 16.6483 5.40314 16.6071 5.19592C16.597 5.14543 16.5783 5.09802 16.5534 5.05264C16.5116 4.97922 16.4561 4.91808 16.3918 4.87016C16.1831 4.52378 15.9741 4.1776 15.7649 3.83145C15.5414 3.46181 15.3179 3.09218 15.0946 2.72241C15.125 2.71914 15.1553 2.71321 15.1857 2.70488C15.2247 2.69429 15.2631 2.68195 15.3029 2.67396C15.3069 2.67315 15.311 2.67246 15.315 2.67165C15.3156 2.6716 15.3162 2.67154 15.3168 2.67146C15.3283 2.67033 15.3397 2.66887 15.3512 2.66816C15.3785 2.66639 15.4059 2.66704 15.4332 2.66918C15.4354 2.66939 15.438 2.66965 15.439 2.66982C15.4483 2.67121 15.4575 2.67248 15.4667 2.67404C15.4832 2.67689 15.4997 2.6803 15.5161 2.68423C15.5325 2.68813 15.5489 2.69252 15.5651 2.69755C15.5712 2.69944 15.5773 2.70162 15.5835 2.70351C15.59 2.70587 15.593 2.70687 15.5924 2.70659C15.5962 2.70807 15.6 2.70955 15.6038 2.71113C15.6294 2.72181 15.6545 2.73421 15.6786 2.74843C15.6882 2.7541 15.6976 2.76014 15.7069 2.76637C15.7071 2.76658 15.7073 2.76674 15.7076 2.76697C15.714 2.7719 15.7204 2.77678 15.7266 2.78191C15.7427 2.79523 15.7581 2.80959 15.7724 2.82491C15.7747 2.82742 15.7771 2.82997 15.7793 2.83256C15.7889 2.84562 15.7995 2.85835 15.8102 2.87037C15.8605 2.92695 15.9391 2.94784 16.0095 2.93429C16.0726 2.9221 16.1287 2.87587 16.1532 2.81589C16.1824 2.74427 16.1696 2.67324 16.1314 2.6061C16.0763 2.50922 16.0198 2.41256 15.9535 2.32281C15.8938 2.24208 15.8213 2.1512 15.7267 2.11201Z" fill="#040606"/>
  <path d="M31.4101 1.74025C31.3801 1.74942 31.35 1.75853 31.3198 1.7673C31.3281 1.74985 31.3362 1.73734 31.3517 1.71625C31.3528 1.71665 31.3539 1.71702 31.355 1.71743C31.3738 1.72437 31.3922 1.73194 31.4101 1.74025ZM31.529 2.11893C31.5292 2.11868 31.5295 2.11844 31.5297 2.11816C31.5298 2.11813 31.5299 2.11813 31.5299 2.1181C31.5295 2.11853 31.5292 2.11887 31.529 2.11893ZM31.5107 2.11986C31.5106 2.11983 31.5105 2.1198 31.5104 2.11977C31.5101 2.11955 31.5097 2.11933 31.5093 2.11905C31.5091 2.11893 31.5088 2.11875 31.5086 2.11859C31.5086 2.11862 31.5087 2.11862 31.5088 2.11865C31.5085 2.11847 31.5082 2.11828 31.5079 2.11807C31.5076 2.11797 31.5073 2.11788 31.5071 2.11779C31.507 2.11779 31.507 2.11779 31.507 2.11776C31.5053 2.11569 31.5037 2.11359 31.5022 2.1114C31.5022 2.11115 31.5022 2.11084 31.5022 2.11047C31.5117 2.11248 31.5212 2.11452 31.5307 2.11652C31.5298 2.11723 31.5289 2.11794 31.528 2.11862C31.5269 2.11912 31.5259 2.11961 31.5248 2.1201C31.524 2.12029 31.5231 2.12048 31.5223 2.12069C31.5215 2.12082 31.5208 2.12094 31.5201 2.12103H31.5201C31.5176 2.12085 31.5161 2.12078 31.5152 2.12078C31.5143 2.1206 31.5131 2.12035 31.512 2.1201C31.5135 2.12103 31.514 2.12165 31.5107 2.11986ZM31.5074 2.11859C31.5076 2.11881 31.5079 2.11899 31.5081 2.11924C31.5075 2.11909 31.5071 2.11893 31.5071 2.11887C31.5072 2.11875 31.5073 2.11865 31.5074 2.11859ZM31.5057 2.11733C31.5031 2.11637 31.5039 2.11621 31.5057 2.11733V2.11733ZM31.5096 2.11961C31.5091 2.11949 31.5086 2.11936 31.5082 2.11927C31.508 2.11902 31.5078 2.11881 31.5076 2.11856C31.5077 2.11853 31.5078 2.11853 31.5079 2.11853C31.5086 2.11893 31.5091 2.1193 31.5096 2.11961ZM31.5021 2.11226C31.5022 2.11211 31.5022 2.11189 31.5022 2.11161C31.5045 2.11544 31.5033 2.11448 31.5021 2.11226ZM31.5303 2.11763C31.5303 2.11767 31.5302 2.11767 31.5302 2.1177C31.5303 2.1176 31.5304 2.11751 31.5305 2.11742C31.5304 2.11751 31.5303 2.11757 31.5303 2.11763ZM31.4302 1.94935C31.4308 1.94939 31.4315 1.94942 31.4321 1.94945C31.4362 1.94954 31.4403 1.94963 31.4443 1.94973C31.4416 1.95201 31.4388 1.95426 31.436 1.95655C31.4341 1.95411 31.4322 1.95173 31.4302 1.94935ZM31.5267 2.11964C31.5267 2.11964 31.5268 2.11961 31.5268 2.11955C31.5268 2.11958 31.5268 2.11961 31.5267 2.11964C31.5267 2.11964 31.5267 2.11964 31.5267 2.11964ZM31.354 1.87616C31.3577 1.87505 31.3614 1.87388 31.3651 1.87273C31.3634 1.87576 31.3621 1.87882 31.3612 1.88188C31.3588 1.87996 31.3564 1.87805 31.354 1.87616ZM29.7647 2.46655C29.7724 2.46015 29.7804 2.45419 29.7886 2.44854C29.7873 2.44944 29.7861 2.4503 29.7848 2.45123C29.747 2.47946 29.7203 2.51466 29.7009 2.55206C29.6922 2.56877 29.6851 2.586 29.6794 2.60357C29.6781 2.60552 29.6768 2.6075 29.6755 2.60947C29.6884 2.55614 29.7174 2.50595 29.7647 2.46655ZM30.6083 2.41062C30.6142 2.41229 30.6199 2.41411 30.6257 2.41584C30.6284 2.41683 30.6312 2.41769 30.6339 2.41868C30.6417 2.42143 30.6495 2.42436 30.657 2.42757C30.6632 2.4302 30.669 2.4331 30.6749 2.43603C30.6784 2.43776 30.682 2.4394 30.6855 2.44119C30.6894 2.4432 30.6933 2.4453 30.6971 2.44743C30.6982 2.44805 30.6993 2.44873 30.7004 2.44938C30.7 2.4491 30.7006 2.44941 30.7025 2.45055C30.7031 2.45086 30.7036 2.4512 30.7041 2.45148C30.7037 2.45126 30.7034 2.45111 30.7031 2.45092C30.7037 2.45129 30.7044 2.45172 30.7052 2.45222C30.7182 2.46052 30.7307 2.46923 30.7425 2.47853C30.7401 2.47699 30.7379 2.47538 30.7355 2.47387C30.6713 2.43273 30.5946 2.40864 30.5147 2.40003C30.4982 2.39261 30.4811 2.38631 30.4634 2.38103C30.4773 2.38301 30.4911 2.38514 30.5048 2.38752C30.5399 2.39357 30.5746 2.40101 30.6083 2.41062ZM30.8175 2.72331C30.816 2.73146 30.8135 2.73952 30.8101 2.74743C30.8073 2.73297 30.8027 2.71864 30.7966 2.70475C30.7977 2.69465 30.7981 2.68449 30.7979 2.67436C30.8027 2.67667 30.8078 2.67859 30.8132 2.67992C30.8183 2.69378 30.8204 2.70827 30.8175 2.72331ZM30.6323 2.83371C30.6368 2.82723 30.6409 2.82062 30.6444 2.81388C30.6502 2.80913 30.6558 2.80422 30.6611 2.79918C30.6544 2.80867 30.647 2.81787 30.6389 2.82679C30.6367 2.82914 30.6345 2.83143 30.6323 2.83371ZM30.494 2.64162C30.5086 2.64613 30.5213 2.65348 30.5319 2.66259C30.5238 2.66843 30.5155 2.67392 30.5068 2.67908C30.5049 2.6663 30.5005 2.65363 30.494 2.64162ZM30.184 2.43304C30.1776 2.43498 30.1713 2.43702 30.165 2.43912C30.1397 2.44073 30.1139 2.4423 30.0879 2.44437C30.0966 2.442 30.1054 2.43974 30.1142 2.43758C30.1305 2.43641 30.1468 2.43539 30.1631 2.43434C30.17 2.43387 30.177 2.43344 30.184 2.43304ZM30.0934 2.62572C30.1048 2.61015 30.1181 2.59557 30.1329 2.58208C30.1357 2.58208 30.1385 2.58211 30.1412 2.5822C30.0797 2.63035 30.0517 2.70533 30.104 2.76586C30.1248 2.78983 30.1547 2.80857 30.189 2.82139C30.168 2.81731 30.1474 2.81212 30.1277 2.80564C30.1121 2.80048 30.097 2.79427 30.0827 2.78705C30.052 2.73572 30.0563 2.67624 30.0934 2.62572ZM29.9153 2.94699C29.9332 2.96299 29.9541 2.97704 29.9767 2.98936C30.0051 3.0048 30.0357 3.01771 30.0678 3.02827C30.0366 3.02438 30.0058 3.01691 29.9758 3.00502C29.9362 2.98927 29.9021 2.96885 29.8733 2.94507C29.8874 2.946 29.9014 2.94659 29.9153 2.94699ZM29.9733 2.81277C29.9842 2.82167 29.9958 2.82973 30.0081 2.83708C30.0085 2.83763 30.0089 2.83816 30.0093 2.83871C29.9909 2.83665 29.9727 2.8338 29.9537 2.82923C29.9515 2.82744 29.9493 2.82565 29.9471 2.82383C29.9448 2.81104 29.9441 2.79804 29.9448 2.78498C29.9533 2.79486 29.9628 2.80419 29.9733 2.81277ZM29.9481 2.54724C29.9244 2.56148 29.9016 2.57791 29.8809 2.59604C29.8824 2.58582 29.8843 2.57556 29.8867 2.56543C29.9106 2.55308 29.9374 2.54397 29.9656 2.53718C29.9597 2.54042 29.9538 2.54375 29.9481 2.54724ZM30.306 2.73282C30.2851 2.7318 30.2648 2.72778 30.248 2.7187C30.2407 2.71472 30.2333 2.70873 30.2283 2.70283C30.2333 2.69999 30.2391 2.69789 30.2457 2.69644C30.2608 2.69313 30.2768 2.69298 30.2925 2.69394C30.294 2.70743 30.2984 2.72062 30.306 2.73282ZM30.2869 2.61973C30.2913 2.6175 30.2956 2.61534 30.2999 2.61321C30.3008 2.61275 30.3018 2.61225 30.3028 2.61179C30.308 2.61324 30.3132 2.61478 30.3183 2.61639C30.3166 2.61821 30.3151 2.62003 30.3136 2.62192C30.3047 2.62093 30.2958 2.62013 30.2869 2.61973ZM30.4089 2.70348C30.4087 2.70468 30.4085 2.7058 30.4083 2.70691C30.4072 2.70885 30.4058 2.71071 30.4043 2.71247C30.4033 2.71157 30.4023 2.71071 30.4012 2.70987C30.3964 2.70623 30.3949 2.70542 30.3932 2.70305C30.3985 2.70329 30.4037 2.70342 30.4089 2.70348ZM31.4133 1.01234C31.3833 1.02155 31.3532 1.03063 31.323 1.0394C31.3313 1.02195 31.3394 1.00944 31.355 0.988316C31.3599 0.990138 31.3649 0.991991 31.3698 0.993875C31.3846 0.999619 31.3991 1.00573 31.4133 1.01234ZM31.5046 1.38241C31.5046 1.38241 31.5047 1.38244 31.5048 1.38247C31.5049 1.38297 31.5051 1.38355 31.5054 1.38417C31.5053 1.38358 31.5052 1.38303 31.5051 1.3825C31.5053 1.38256 31.5055 1.3826 31.5057 1.38263C31.5061 1.38389 31.5065 1.38516 31.507 1.38639C31.5071 1.38642 31.5071 1.38646 31.5072 1.38652C31.5067 1.38479 31.5063 1.38355 31.506 1.38272C31.5154 1.3847 31.5248 1.38667 31.5341 1.38865C31.534 1.3888 31.5338 1.38886 31.5336 1.38902C31.5328 1.38957 31.5322 1.39013 31.5317 1.39066C31.5303 1.39112 31.5288 1.39158 31.5275 1.39211C31.5255 1.39229 31.5233 1.39251 31.5213 1.39272C31.519 1.3926 31.5164 1.39245 31.5154 1.39229C31.5148 1.39217 31.5143 1.39211 31.5138 1.39201C31.5117 1.39041 31.5096 1.38874 31.5075 1.38726C31.5198 1.39578 31.5107 1.38905 31.5078 1.38704C31.5076 1.38686 31.5074 1.3867 31.5072 1.38652C31.5072 1.38673 31.5073 1.38692 31.5073 1.3872C31.5072 1.38692 31.5071 1.38667 31.507 1.38639C31.5063 1.38571 31.5058 1.38494 31.5054 1.38417C31.5055 1.38457 31.5056 1.38488 31.5057 1.38528C31.5051 1.38466 31.5048 1.38365 31.5046 1.38241ZM31.4334 1.22145C31.4341 1.22148 31.4347 1.22154 31.4353 1.22154C31.4394 1.22163 31.4435 1.22173 31.4476 1.22185C31.4448 1.22411 31.442 1.22639 31.4392 1.22868C31.4373 1.22627 31.4354 1.22383 31.4334 1.22145ZM31.5148 1.39257C31.5158 1.39279 31.5168 1.393 31.5173 1.39313C31.5171 1.39316 31.5168 1.39319 31.5166 1.39322C31.5161 1.3931 31.5154 1.39288 31.5148 1.39257ZM31.5136 1.39198C31.5092 1.38961 31.5049 1.38547 31.5138 1.39201C31.5137 1.39201 31.5137 1.39198 31.5136 1.39198ZM31.3572 1.14823C31.3609 1.14711 31.3646 1.14597 31.3683 1.14483C31.3666 1.14786 31.3653 1.15091 31.3644 1.15397C31.362 1.15206 31.3597 1.15011 31.3572 1.14823ZM31.0991 0.90904C31.0856 0.909503 31.072 0.909812 31.0585 0.910028C31.0622 0.905859 31.066 0.901752 31.0699 0.897737C31.0796 0.901659 31.0893 0.905427 31.0991 0.90904ZM31.097 1.63688C31.0831 1.63738 31.0692 1.63772 31.0552 1.63793C31.0591 1.63358 31.0631 1.62932 31.0672 1.62515C31.077 1.62919 31.087 1.63312 31.097 1.63688ZM30.9482 1.56261C30.9476 1.56329 30.9469 1.564 30.9463 1.56471C30.9463 1.5636 30.9464 1.56249 30.9464 1.56138C30.947 1.56181 30.9476 1.56221 30.9482 1.56261ZM31.0291 1.13201C31.0588 1.13893 31.0888 1.14486 31.1178 1.15329C31.1208 1.15416 31.1237 1.15508 31.1267 1.15595C31.1271 1.1561 31.1275 1.15626 31.1279 1.15644C31.1358 1.15941 31.1438 1.16222 31.1515 1.16543C31.1699 1.17303 31.1874 1.1818 31.2042 1.19125C31.2055 1.19205 31.2071 1.19298 31.2077 1.19338C31.2131 1.1969 31.2185 1.20033 31.2238 1.20394C31.2334 1.21042 31.2426 1.21716 31.2516 1.22407C31.2606 1.23105 31.2694 1.23822 31.2778 1.2456C31.281 1.24844 31.284 1.25134 31.2872 1.25415C31.2905 1.2573 31.292 1.25869 31.2917 1.25842C31.2935 1.2603 31.2954 1.26215 31.2972 1.26407C31.3093 1.27716 31.3204 1.29084 31.3301 1.30511C31.334 1.31082 31.3375 1.31663 31.3409 1.32247C31.341 1.32265 31.3411 1.32281 31.3412 1.32299C31.3432 1.32735 31.3453 1.33164 31.3472 1.33602C31.3522 1.34742 31.3561 1.35906 31.359 1.37086C31.3595 1.37281 31.3599 1.37472 31.3603 1.37667C31.3611 1.3859 31.3627 1.39529 31.3646 1.40437C31.3736 1.44711 31.4158 1.48145 31.467 1.49664C31.5129 1.5103 31.5685 1.50538 31.6092 1.48408C31.6579 1.45866 31.6792 1.42058 31.6823 1.37648C31.6869 1.31292 31.6906 1.24897 31.6849 1.18535C31.6799 1.12812 31.6707 1.06203 31.6257 1.01395C31.5679 0.952152 31.4857 0.911047 31.3959 0.881276C31.3432 0.863797 31.289 0.849282 31.2354 0.833594C31.2234 0.830073 31.2116 0.826429 31.1997 0.822815C31.1979 0.822229 31.1965 0.821827 31.1954 0.821488C31.1944 0.821148 31.1931 0.820684 31.1913 0.820067C31.185 0.817905 31.1787 0.815743 31.1724 0.813458C31.1473 0.80444 31.1228 0.794404 31.0996 0.782792C31.0957 0.780846 31.0919 0.778869 31.0881 0.776831C31.085 0.775194 31.082 0.773527 31.079 0.771828C31.0787 0.771643 31.0784 0.771458 31.078 0.771211C31.0692 0.765436 31.0605 0.75966 31.0523 0.753453C31.044 0.747184 31.036 0.740606 31.0285 0.733781C31.0273 0.732638 31.0151 0.719791 31.0241 0.729704C31.0205 0.725689 31.0168 0.721767 31.0134 0.71766C31.0065 0.709507 31.0009 0.701014 30.9949 0.692521C30.9944 0.691842 30.994 0.691255 30.9936 0.69073C30.9936 0.690668 30.9936 0.690607 30.9935 0.690514C30.9912 0.685326 30.9886 0.680199 30.9866 0.674918C30.9854 0.671923 30.9844 0.668896 30.9835 0.665839C30.9826 0.663152 30.9807 0.648112 30.9809 0.65398C30.9807 0.650922 30.9806 0.647896 30.9805 0.644869C30.9807 0.639805 30.9809 0.63474 30.9811 0.629706C30.9822 0.600615 30.9471 0.572789 30.909 0.574117C30.8674 0.575538 30.84 0.598576 30.8369 0.629706C30.8362 0.635821 30.836 0.641905 30.8362 0.647958C30.8271 0.884457 30.8183 1.12099 30.8096 1.35749C30.8096 1.35752 30.8096 1.35755 30.8096 1.35758C30.8092 1.36255 30.809 1.36746 30.8091 1.37237C30.8087 1.38284 30.8083 1.39334 30.8079 1.40384C30.7983 1.66706 30.7888 1.93027 30.779 2.19348C30.7765 2.26201 30.7738 2.33051 30.7712 2.39904C30.7544 2.38823 30.7366 2.37822 30.7178 2.36911C30.6743 2.34796 30.6229 2.33477 30.5736 2.32433C30.4555 2.29929 30.3308 2.29107 30.2087 2.28993C30.0455 2.28838 29.8786 2.30021 29.7453 2.38035C29.6318 2.44854 29.5749 2.55762 29.5716 2.66679C29.5681 2.77994 29.6245 2.88902 29.7269 2.96997C29.8295 3.05103 29.9695 3.09955 30.1149 3.11119C30.278 3.12422 30.4441 3.08636 30.5848 3.02429C30.7181 2.96546 30.8544 2.88102 30.9138 2.76864C30.9283 2.74125 30.9359 2.71268 30.9387 2.68319C30.9421 2.63498 30.9316 2.58847 30.9099 2.54558C30.9188 2.31454 30.9273 2.08354 30.9358 1.85254C30.9361 1.84531 30.9363 1.83808 30.9366 1.83086C30.9643 1.84299 30.9942 1.85251 31.0259 1.85989C31.0556 1.86684 31.0856 1.87277 31.1146 1.8812C31.117 1.88188 31.1197 1.88252 31.1223 1.88327C31.1231 1.88364 31.1239 1.88404 31.1247 1.88432C31.1334 1.88762 31.1422 1.89077 31.1507 1.89435C31.1676 1.90139 31.1837 1.90942 31.1992 1.91813C31.2 1.91875 31.2092 1.92428 31.2098 1.92468C31.2135 1.92703 31.2171 1.9294 31.2206 1.93184C31.2312 1.93898 31.2413 1.94645 31.2512 1.95414C31.2601 1.96109 31.2687 1.96825 31.277 1.97567C31.28 1.97838 31.283 1.98113 31.2859 1.98391C31.2867 1.98475 31.2929 1.99086 31.294 1.99197C31.3067 2.00565 31.3182 2.02001 31.3282 2.03502C31.3304 2.0383 31.3325 2.04157 31.3345 2.04491C31.3347 2.04518 31.337 2.04929 31.3382 2.05145C31.339 2.05303 31.3397 2.05445 31.3398 2.05466C31.3416 2.05834 31.3433 2.06205 31.3448 2.06575C31.3498 2.07761 31.3538 2.08975 31.3566 2.10204C31.3566 2.10219 31.3567 2.10238 31.3567 2.10253C31.357 2.10352 31.3573 2.10476 31.3574 2.1059C31.3574 2.10608 31.3574 2.10627 31.3575 2.10642C31.3577 2.10763 31.3579 2.10883 31.3583 2.11001C31.358 2.1092 31.3578 2.10846 31.3576 2.10778C31.3585 2.11736 31.3596 2.12712 31.3623 2.1365C31.3743 2.17857 31.4165 2.21232 31.4688 2.22609C31.5152 2.23829 31.5706 2.23187 31.6102 2.20957C31.6584 2.18233 31.6762 2.14493 31.6794 2.10025C31.684 2.03657 31.6875 1.97245 31.6813 1.90877C31.6755 1.84824 31.6639 1.7837 31.6149 1.73407C31.552 1.67048 31.4637 1.632 31.3696 1.60165C31.319 1.58537 31.267 1.57203 31.2159 1.55665C31.2105 1.55504 31.2051 1.55338 31.1997 1.55171C31.1973 1.55094 31.1948 1.55016 31.1923 1.54936C31.1913 1.54902 31.1899 1.54856 31.1881 1.54797C31.1755 1.54362 31.1629 1.5392 31.1505 1.53438C31.127 1.52527 31.1041 1.51508 31.0825 1.50344C31.0785 1.50131 31.0746 1.49905 31.0706 1.49686C31.0695 1.49627 31.0687 1.49587 31.068 1.4955C31.0675 1.49516 31.0668 1.49473 31.066 1.49417C31.0563 1.488 31.0467 1.48182 31.0375 1.47527C31.0281 1.46863 31.0191 1.46169 31.0104 1.45449C31.006 1.45088 31.0018 1.4472 30.9977 1.44347C30.9961 1.44208 30.9896 1.43556 30.9898 1.43587C30.9837 1.42926 30.9778 1.4225 30.9725 1.41542C30.9705 1.41271 30.9686 1.40996 30.9667 1.40718C30.9651 1.40486 30.9636 1.40248 30.9622 1.40011C30.9621 1.39989 30.962 1.3997 30.9618 1.39943C30.9586 1.39158 30.9557 1.38386 30.9535 1.37583C30.9535 1.37562 30.9535 1.37543 30.9535 1.37518C30.9535 1.3733 30.9534 1.37142 30.9534 1.36953C30.9536 1.36515 30.9538 1.36079 30.9539 1.35641C30.954 1.35576 30.954 1.35514 30.954 1.35449C30.9569 1.27376 30.9599 1.19304 30.9629 1.11228C30.9839 1.12009 31.006 1.12661 31.0291 1.13201Z" fill="#040606"/>
</svg>