<svg xmlns="http://www.w3.org/2000/svg" width="215" height="216" viewBox="0 0 215 216" fill="none">
  <g clip-path="url(#clip0_604_713)">
    <path d="M20.6757 181.961L18.7821 174.481C15.4248 173.056 11.9899 171.821 8.4938 170.783L8.2548 174.26L7.28551 170.43C2.94971 169.188 0 168.642 0 168.642C0 168.642 3.98336 183.818 12.3409 195.42L22.0782 197.134L14.5136 198.226C15.5649 199.493 16.6947 200.693 17.8963 201.818C30.0527 213.12 43.593 218.306 48.1389 213.4C52.6849 208.494 46.5153 195.355 34.3588 184.054C30.5902 180.55 25.8561 177.738 21.117 175.525L20.6757 181.961Z" fill="#F2F2F2"/>
    <path d="M38.6833 173.836L40.9226 166.452C38.7843 163.494 36.481 160.659 34.0239 157.96L32.0253 160.813L33.1718 157.032C30.1003 153.726 27.8572 151.731 27.8572 151.731C27.8572 151.731 23.4365 166.785 24.6027 181.044L32.0541 187.552L25.0134 184.57C25.2598 186.2 25.6082 187.812 26.0566 189.397C30.6305 205.367 39.5455 216.816 45.9685 214.971C52.3915 213.125 53.8908 198.683 49.3168 182.713C47.899 177.762 45.2971 172.904 42.3826 168.556L38.6833 173.836Z" fill="#F2F2F2"/>
    <path d="M150.026 51.1705H148.845V18.7594C148.845 16.2959 148.36 13.8565 147.419 11.5805C146.478 9.3045 145.098 7.23648 143.359 5.49451C141.62 3.75253 139.556 2.37072 137.283 1.42797C135.011 0.485225 132.576 0 130.116 0H61.56C56.5929 0 51.8292 1.97643 48.317 5.49451C44.8047 9.01258 42.8315 13.7841 42.8315 18.7594V196.572C42.8315 199.036 43.316 201.475 44.2572 203.751C45.1983 206.027 46.5779 208.095 48.317 209.837C50.0561 211.579 52.1207 212.961 54.3929 213.904C56.6652 214.847 59.1005 215.332 61.56 215.332H130.116C135.083 215.332 139.847 213.355 143.359 209.837C146.871 206.319 148.844 201.548 148.844 196.572V74.2414H150.026L150.026 51.1705Z" fill="#380F43"/>
    <path d="M130.872 4.87872H121.924C122.335 5.88939 122.492 6.98593 122.381 8.07174C122.27 9.15755 121.894 10.1993 121.286 11.1052C120.678 12.0111 119.857 12.7533 118.895 13.2665C117.934 13.7797 116.861 14.0481 115.771 14.0481H76.4959C75.4062 14.048 74.3333 13.7796 73.3717 13.2663C72.41 12.7531 71.5891 12.0108 70.9813 11.1049C70.3735 10.1991 69.9974 9.15736 69.8862 8.0716C69.775 6.98584 69.9321 5.88935 70.3436 4.87872H61.9855C58.2761 4.87872 54.7187 6.3547 52.0957 8.98197C49.4728 11.6092 47.9993 15.1726 47.9993 18.8881V196.443C47.9993 200.158 49.4728 203.722 52.0957 206.349C54.7187 208.976 58.2761 210.452 61.9855 210.452H130.872C134.581 210.452 138.139 208.976 140.762 206.349C143.385 203.722 144.858 200.158 144.858 196.443V18.8878C144.858 15.1723 143.385 11.6091 140.762 8.98186C138.139 6.35466 134.581 4.87872 130.872 4.87872Z" fill="#FBF6FD"/>
    <path d="M87.6507 75.6075C87.6505 74.3664 87.9766 73.1472 88.5964 72.0725C89.2161 70.9978 90.1075 70.1055 91.1809 69.4856C90.108 68.8649 88.891 68.5381 87.652 68.5379C86.4131 68.5378 85.1959 68.8644 84.123 69.4848C83.05 70.1052 82.1589 70.9976 81.5394 72.0723C80.9199 73.147 80.5938 74.3661 80.5938 75.6071C80.5938 76.8481 80.9199 78.0672 81.5394 79.1419C82.1589 80.2166 83.05 81.109 84.123 81.7294C85.1959 82.3498 86.4131 82.6764 87.652 82.6763C88.891 82.6761 90.108 82.3493 91.1809 81.7286C90.1076 81.1088 89.2162 80.2167 88.5965 79.1422C87.9767 78.0676 87.6505 76.8485 87.6507 75.6075Z" fill="#CCCCCC"/>
    <path d="M96.523 75.6075C96.5228 74.3664 96.8489 73.1472 97.4686 72.0724C98.0884 70.9977 98.9798 70.1055 100.053 69.4856C98.9803 68.8649 97.7633 68.5381 96.5243 68.5379C95.2854 68.5378 94.0683 68.8644 92.9953 69.4848C91.9223 70.1052 91.0312 70.9976 90.4117 72.0723C89.7922 73.147 89.4661 74.3661 89.4661 75.6071C89.4661 76.8481 89.7922 78.0672 90.4117 79.1419C91.0312 80.2166 91.9223 81.109 92.9953 81.7294C94.0683 82.3498 95.2854 82.6764 96.5243 82.6763C97.7633 82.6761 98.9803 82.3493 100.053 81.7286C98.9799 81.1088 98.0885 80.2167 97.4688 79.1422C96.8491 78.0676 96.5229 76.8485 96.523 75.6075Z" fill="#CCCCCC"/>
    <path d="M105.194 82.6764C109.091 82.6764 112.251 79.5114 112.251 75.6072C112.251 71.7031 109.091 68.5381 105.194 68.5381C101.296 68.5381 98.1362 71.7031 98.1362 75.6072C98.1362 79.5114 101.296 82.6764 105.194 82.6764Z" fill="#5B2867"/>
    <path d="M116.988 97.687H75.8559C75.4643 97.6865 75.0889 97.5305 74.812 97.2532C74.5351 96.9758 74.3794 96.5998 74.3789 96.2075V55.007C74.3794 54.6147 74.5351 54.2387 74.812 53.9613C75.0889 53.684 75.4643 53.528 75.8559 53.5275H116.988C117.38 53.528 117.755 53.684 118.032 53.9613C118.309 54.2387 118.465 54.6147 118.466 55.007V96.2075C118.465 96.5998 118.309 96.9758 118.032 97.2532C117.755 97.5305 117.38 97.6865 116.988 97.687ZM75.8559 54.1196C75.621 54.1199 75.3957 54.2134 75.2296 54.3799C75.0634 54.5463 74.97 54.7719 74.9698 55.0073V96.2078C74.97 96.4432 75.0634 96.6688 75.2296 96.8352C75.3957 97.0016 75.621 97.0952 75.8559 97.0954H116.988C117.223 97.0952 117.449 97.0016 117.615 96.8352C117.781 96.6688 117.874 96.4432 117.875 96.2078V55.0073C117.874 54.7719 117.781 54.5463 117.615 54.3799C117.449 54.2134 117.223 54.1199 116.988 54.1196H75.8559Z" fill="#CCCCCC"/>
    <path d="M126.173 129.269H63.0879V129.861H126.173V129.269Z" fill="#CCCCCC"/>
    <path d="M65.0801 125.574C66.1804 125.574 67.0724 124.681 67.0724 123.579C67.0724 122.476 66.1804 121.583 65.0801 121.583C63.9799 121.583 63.0879 122.476 63.0879 123.579C63.0879 124.681 63.9799 125.574 65.0801 125.574Z" fill="#5B2867"/>
    <path d="M126.173 149.224H63.0879V149.815H126.173V149.224Z" fill="#CCCCCC"/>
    <path d="M65.0801 145.529C66.1804 145.529 67.0724 144.635 67.0724 143.533C67.0724 142.431 66.1804 141.538 65.0801 141.538C63.9799 141.538 63.0879 142.431 63.0879 143.533C63.0879 144.635 63.9799 145.529 65.0801 145.529Z" fill="#5B2867"/>
    <path d="M125.018 171.947H105.082C104.737 171.946 104.407 171.809 104.164 171.565C103.92 171.321 103.783 170.991 103.783 170.646V163.646C103.783 163.302 103.92 162.971 104.164 162.727C104.407 162.483 104.737 162.346 105.082 162.345H125.018C125.363 162.346 125.693 162.483 125.936 162.727C126.18 162.971 126.317 163.302 126.317 163.646V170.646C126.317 170.991 126.18 171.321 125.936 171.565C125.693 171.809 125.363 171.946 125.018 171.947Z" fill="#5B2867"/>
    <path d="M71.5787 125.574C72.679 125.574 73.5709 124.681 73.5709 123.579C73.5709 122.476 72.679 121.583 71.5787 121.583C70.4784 121.583 69.5864 122.476 69.5864 123.579C69.5864 124.681 70.4784 125.574 71.5787 125.574Z" fill="#5B2867"/>
    <path d="M78.0775 125.574C79.1778 125.574 80.0697 124.681 80.0697 123.579C80.0697 122.476 79.1778 121.583 78.0775 121.583C76.9772 121.583 76.0852 122.476 76.0852 123.579C76.0852 124.681 76.9772 125.574 78.0775 125.574Z" fill="#5B2867"/>
    <path d="M71.5787 145.529C72.679 145.529 73.5709 144.635 73.5709 143.533C73.5709 142.431 72.679 141.538 71.5787 141.538C70.4784 141.538 69.5864 142.431 69.5864 143.533C69.5864 144.635 70.4784 145.529 71.5787 145.529Z" fill="#5B2867"/>
    <path d="M78.0775 145.529C79.1778 145.529 80.0697 144.635 80.0697 143.533C80.0697 142.431 79.1778 141.538 78.0775 141.538C76.9772 141.538 76.0852 142.431 76.0852 143.533C76.0852 144.635 76.9772 145.529 78.0775 145.529Z" fill="#5B2867"/>
    <path d="M214.197 216H6.95073C6.50708 216 6.14771 215.842 6.14771 215.648C6.14771 215.454 6.50708 215.295 6.95073 215.295H214.197C214.64 215.295 215 215.453 215 215.648C215 215.842 214.64 216 214.197 216Z" fill="#3F3D56"/>
    <path d="M162.994 141.516C163.135 141.581 163.271 141.657 163.401 141.744L176.347 136.209L176.81 132.793L181.983 132.761L181.677 140.596L164.589 145.123C164.553 145.242 164.51 145.358 164.46 145.472C164.213 146 163.815 146.443 163.318 146.746C162.82 147.049 162.244 147.197 161.663 147.173C161.081 147.149 160.519 146.953 160.048 146.61C159.577 146.268 159.218 145.793 159.015 145.246C158.813 144.7 158.776 144.105 158.909 143.538C159.043 142.97 159.341 142.455 159.766 142.056C160.191 141.658 160.724 141.394 161.298 141.298C161.873 141.202 162.462 141.278 162.994 141.516Z" fill="#FFB8B8"/>
    <path d="M183.864 212.514H180.325L178.642 198.842L183.864 198.842L183.864 212.514Z" fill="#FFB8B8"/>
    <path d="M177.797 211.501H184.622V215.806H173.5C173.5 214.664 173.953 213.569 174.759 212.762C175.565 211.955 176.658 211.501 177.797 211.501Z" fill="#2F2E41"/>
    <path d="M197.627 211.513L194.105 211.86L191.091 198.419L196.289 197.906L197.627 211.513Z" fill="#FFB8B8"/>
    <path d="M191.49 211.1L198.282 210.43L198.704 214.714L187.635 215.806C187.58 215.243 187.636 214.675 187.8 214.135C187.963 213.594 188.232 213.09 188.59 212.653C188.948 212.216 189.388 211.854 189.886 211.588C190.384 211.322 190.929 211.156 191.49 211.1Z" fill="#2F2E41"/>
    <path d="M184.849 118.292C188.764 118.292 191.939 115.112 191.939 111.191C191.939 107.269 188.764 104.089 184.849 104.089C180.934 104.089 177.76 107.269 177.76 111.191C177.76 115.112 180.934 118.292 184.849 118.292Z" fill="#FFB8B8"/>
    <path d="M179.534 209.749C179.23 209.75 178.935 209.643 178.702 209.448C178.469 209.252 178.312 208.98 178.26 208.68C176.428 198.496 170.441 165.194 170.298 164.272C170.295 164.251 170.293 164.229 170.293 164.208V161.725C170.293 161.634 170.321 161.546 170.374 161.473L171.165 160.363C171.202 160.31 171.252 160.265 171.309 160.234C171.366 160.203 171.43 160.185 171.495 160.182C176.004 159.97 190.772 159.35 191.486 160.243C192.202 161.14 191.949 163.859 191.891 164.395L191.894 164.45L198.528 206.951C198.58 207.29 198.497 207.635 198.296 207.913C198.096 208.191 197.794 208.379 197.456 208.435L193.312 209.119C193.004 209.169 192.687 209.106 192.421 208.942C192.155 208.778 191.956 208.523 191.862 208.225C190.58 204.123 186.282 190.323 184.793 184.983C184.783 184.949 184.762 184.92 184.733 184.901C184.704 184.881 184.668 184.874 184.634 184.878C184.599 184.883 184.567 184.901 184.545 184.927C184.522 184.954 184.509 184.988 184.51 185.023C184.584 190.113 184.764 203.1 184.826 207.586L184.833 208.069C184.836 208.396 184.716 208.712 184.497 208.955C184.278 209.198 183.977 209.35 183.651 209.38L179.655 209.744C179.615 209.748 179.574 209.749 179.534 209.749Z" fill="#2F2E41"/>
    <path d="M180.35 121.084C179.112 121.821 178.372 123.175 177.947 124.552C177.161 127.103 176.687 129.74 176.537 132.405L176.088 140.385L170.531 161.54C175.348 165.623 178.126 164.695 184.611 161.355C191.096 158.016 191.837 162.469 191.837 162.469L193.133 144.468L194.986 124.798C194.57 124.297 194.099 123.843 193.583 123.447C191.87 122.113 189.878 121.186 187.756 120.735C185.634 120.285 183.437 120.323 181.332 120.846L180.35 121.084Z" fill="#5B2867"/>
    <path d="M178.544 145.789C178.694 145.845 178.839 145.913 178.977 145.993L191.778 139.575L191.991 136.098L197.271 135.733L197.554 143.659L180.447 149.326C180.308 149.926 179.989 150.469 179.533 150.883C179.078 151.297 178.507 151.563 177.898 151.644C177.288 151.726 176.668 151.62 176.12 151.34C175.572 151.059 175.122 150.619 174.83 150.076C174.538 149.534 174.418 148.915 174.486 148.303C174.553 147.69 174.805 147.113 175.209 146.648C175.612 146.182 176.147 145.851 176.743 145.697C177.339 145.544 177.967 145.576 178.544 145.789Z" fill="#FFB8B8"/>
    <path d="M194.893 124.888C198.043 126.002 198.598 138.065 198.598 138.065C194.892 136.024 190.446 139.364 190.446 139.364C190.446 139.364 189.519 136.209 188.408 132.127C188.072 130.978 188.032 129.763 188.291 128.595C188.55 127.427 189.1 126.344 189.89 125.446C189.89 125.446 191.744 123.774 194.893 124.888Z" fill="#5B2867"/>
    <path d="M191.206 113.069C190.323 112.361 189.117 113.647 189.117 113.647L188.411 107.277C188.411 107.277 183.994 107.807 181.167 107.1C178.341 106.393 177.899 109.666 177.899 109.666C177.753 108.344 177.724 107.012 177.811 105.684C177.987 104.092 180.284 102.499 184.347 101.437C188.411 100.376 190.531 104.977 190.531 104.977C193.357 106.392 192.089 113.776 191.206 113.069Z" fill="#2F2E41"/>
  </g>
  <defs>
    <clipPath id="clip0_604_713">
      <rect width="215" height="216" fill="white"/>
    </clipPath>
  </defs>
</svg>