<svg xmlns="http://www.w3.org/2000/svg" width="25" height="25" viewBox="0 0 25 25" fill="none">
  <path d="M22.7881 15.5V9.5C22.7881 4.5 20.7881 2.5 15.7881 2.5H9.78809C4.78809 2.5 2.78809 4.5 2.78809 9.5V15.5C2.78809 20.5 4.78809 22.5 9.78809 22.5H15.7881C20.7881 22.5 22.7881 20.5 22.7881 15.5Z" stroke="#1B4771" stroke-width="1.5" stroke-linecap="round" stroke-linejoin="round"/>
  <path d="M10.4081 17.8C11.5789 17.8 12.5281 16.8508 12.5281 15.68C12.5281 14.5091 11.5789 13.56 10.4081 13.56C9.23724 13.56 8.28809 14.5091 8.28809 15.68C8.28809 16.8508 9.23724 17.8 10.4081 17.8Z" stroke="#1B4771" stroke-width="1.5" stroke-linecap="round" stroke-linejoin="round"/>
  <path d="M12.5281 15.68V8.27002" stroke="#1B4771" stroke-width="1.5" stroke-linecap="round" stroke-linejoin="round"/>
  <path d="M13.9181 7.27004L16.2581 8.05C16.8281 8.24 17.2881 8.88 17.2881 9.48V10.1C17.2881 10.91 16.6581 11.36 15.8981 11.1L13.5581 10.32C12.9881 10.13 12.5281 9.49003 12.5281 8.89003V8.27004C12.5281 7.47004 13.1481 7.01004 13.9181 7.27004Z" stroke="#1B4771" stroke-width="1.5" stroke-linecap="round" stroke-linejoin="round"/>
</svg>